<?xml version="1.0" standalone="no"?>
<!DOCTYPE svg PUBLIC "-//W3C//DTD SVG 1.1//EN" "http://www.w3.org/Graphics/SVG/1.1/DTD/svg11.dtd" >
<!--
2013-9-30: Created.
-->
<svg>
<metadata>
Created by iconfont
</metadata>
<defs>

<font id="i_cc" horiz-adv-x="1024" >
  <font-face
    font-family="i_cc"
    font-weight="500"
    font-stretch="normal"
    units-per-em="1024"
    ascent="896"
    descent="-128"
  />
    <missing-glyph />
    
    <glyph glyph-name="queren" unicode="&#59157;" d="M511.6 895.2C228.8 895.2 0 666.8 0 384.4s228.8-511.2 511.6-511.2 511.6 228.8 511.6 511.2S794 895.2 511.6 895.2z m277.2-382l-326-325.6c-10.4-10.4-19.2-14-34.4-14-14 0-24.4 5.2-34.4 14l-160 159.6c-19.2 19.2-19.2 48.4 0 67.6 19.2 19.2 48.8 19.2 67.6 0l126.8-126.4 292.8 292.4c19.2 19.2 48.8 19.2 67.6 0 19.2-18.8 19.2-48.4 0-67.6z m0 0"  horiz-adv-x="1024" />

    
    <glyph glyph-name="chaxun" unicode="&#59147;" d="M998.175182-43.63901l-297.462447 312.655421c44.379478 55.574301 72.366536 121.943611 81.162469 193.110701 12.794084 102.35267-15.192974 203.505894-78.763578 285.068179C639.940837 828.357759 548.383176 880.333724 446.030506 893.127808 343.677836 905.522077 242.524611 877.535019 161.362143 814.36423 79.799859 750.793627 27.823894 659.63578 15.429625 557.28311 2.635541 454.93044 30.622599 353.777216 94.193203 272.214932c61.571528-78.763578 149.530854-130.339728 248.685003-144.733072 2.398891-0.399815 4.797781-0.399815 7.196672-0.399816 24.388722 0 45.578923 18.391495 49.177259 42.380403 3.998151 27.187428-14.793159 52.37578-41.980587 56.373931-73.565981 10.795008-139.135661 48.777444-184.714584 107.550267-47.178184 60.372083-67.96857 135.537325-58.373007 211.502196 9.595563 75.964872 47.977814 143.533627 108.349896 190.711811C347.276172 832.755726 527.992605 810.366079 625.147678 685.623763c47.178184-60.372083 67.96857-135.537325 58.373007-211.502197-9.595563-75.964872-47.977814-143.933442-108.349897-190.711811-28.786688-22.389647-60.771898-38.782066-95.555812-49.177259-12.794084-3.598336-23.189277-11.994454-29.586319-23.988907-6.397042-11.594638-7.996302-25.188352-3.998151-37.982436 7.596487-26.387798 35.18373-41.580772 61.571528-33.58447 43.979663 12.794084 85.16062 33.58447 121.94361 60.771898l296.662817-311.855791c9.195748-9.995378 22.389647-15.59279 35.98336-15.59279h0.399816c12.794084 0 24.788537 4.797781 33.984284 13.593714 9.595563 9.195748 15.192974 21.590016 15.59279 34.783915 0 13.593714-4.797781 26.387798-13.993529 35.983361z"  horiz-adv-x="1024" />

    
    <glyph glyph-name="changjingguanli" unicode="&#59148;" d="M465.2-33.6c25.6 0 46.4-20.8 46.4-46.4 0-25.6-20.8-46.4-46.4-46.4H92.8c-24.8 0-48.4 9.6-66 27.2-17.2 17.2-26.8 40.8-26.8 65.6V802.8C0 854.4 41.6 896 92.8 896h838c24.8 0 48.4-9.6 66-27.2s27.2-41.2 27.2-65.6v-325.2c0-25.6-20.8-46.4-46.4-46.4-25.6 0-46.4 20.8-46.4 46.4V756.4c0 25.6-20.8 46.4-46.4 46.4H139.6c-25.6 0-46.4-20.8-46.4-46.4v-743.6c0-25.6 20.8-46.4 46.4-46.4h325.6zM186 733.2h256c12.8 0 23.2-10.4 23.2-23.2v-255.6c0-12.8-10.4-23.2-23.2-23.2h-256c-12.8 0-23.2 10.4-23.2 23.2V710c0 6 2.4 12 6.8 16.4 4.4 4.4 10.4 6.8 16.4 6.8z m395.6 0h256c6 0 12-2.4 16.4-6.8 4.4-4.4 6.8-10.4 6.8-16.4v-255.6c0-6-2.4-12-6.8-16.4-4.4-4.4-10.4-6.8-16.4-6.8h-256c-6 0-12 2.4-16.4 6.8-4.4 4.4-6.8 10.4-6.8 16.4V710c0 6 2.4 12 6.8 16.4 4.4 4.4 10.4 6.8 16.4 6.8z m-395.6-395.2h256c6 0 12-2.4 16.4-6.8 4.4-4.4 6.8-10.4 6.8-16.4v-255.6c0-6-2.4-12-6.8-16.4-4.4-4.4-10.4-6.8-16.4-6.8h-256c-6 0-12 2.4-16.4 6.8-4.4 4.4-6.8 10.4-6.8 16.4v255.6c0 6 2.4 12 6.8 16.4 4.4 4.4 10.4 6.8 16.4 6.8z m465.6 0h326c25.6 0 46.4-20.8 46.4-46.4 0-25.6-20.8-46.4-46.4-46.4h-326c-25.6 0-46.4 20.8-46.4 46.4-0.4 25.6 20.8 46.4 46.4 46.4z m0-185.6h326c25.6 0 46.4-20.8 46.4-46.4 0-25.6-20.8-46.4-46.4-46.4h-326c-25.6 0-46.4 20.8-46.4 46.4-0.4 25.6 20.8 46.4 46.4 46.4z m0-186h326c25.6 0 46.4-20.8 46.4-46.4 0-25.6-20.8-46.4-46.4-46.4h-326c-25.6 0-46.4 20.8-46.4 46.4-0.4 25.6 20.8 46.4 46.4 46.4z m0 0"  horiz-adv-x="1024" />

    
    <glyph glyph-name="chakan" unicode="&#59149;" d="M511.6 573.2c-104.4 0-189.6-85.6-189.6-190.8 0-105.2 85.2-190.8 189.6-190.8 104.4 0 189.6 85.6 189.6 190.8 0 105.2-85.2 190.8-189.6 190.8z m0-288c-51.6 2.4-92 45.2-92 97.2s40.4 94.8 92 97.2c51.6-2.4 92-45.2 92-97.2s-40.4-94.8-92-97.2z m0 0M511.6 789.2C229.6 789.2 0 462 0 382.4c0-79.6 229.6-407.2 511.6-407.2s511.6 327.2 511.6 407.2c0 79.6-230 406.8-511.6 406.8z m0-720c-229.2 0-418 278-418.4 313.2 0.4 35.2 189.6 313.2 418.4 313.2 229.2 0 418-278 418.4-313.2-0.4-35.2-189.6-313.2-418.4-313.2z m0 0"  horiz-adv-x="1024" />

    
    <glyph glyph-name="shouquangongnengmoren" unicode="&#59150;" d="M951.428348 645.29793L520.39672 893.600937c-5.19797 2.798907-11.595471 3.19875-16.79344 0L72.571652 647.29715c-5.19797-3.19875-8.39672-8.796564-8.39672-14.794221v-497.005858c0-5.997657 3.19875-11.595471 8.39672-14.394377l431.031628-246.703631c2.399063-1.599375 5.597813-2.399063 8.39672-2.399063s5.597813 0.799688 8.39672 2.399063l431.031628 246.703631c5.19797 2.798907 8.39672 8.39672 8.39672 14.394377V630.903553c0 5.997657-3.19875 11.595471-8.39672 14.394377z m-79.169074-467.817258L512-28.838735l-360.259274 206.71925V590.919172L512 799.237798l360.259274-208.318626v-413.4385zM266.096056 571.726669c-7.597032 4.398282-17.593128 1.599375-21.991409-5.997657l-25.590004-44.382663c-4.398282-7.597032-1.999219-17.593128 5.997657-21.99141l235.508005-136.346739v-236.707536c0-11.995314 9.996095-21.99141 21.991409-21.99141h51.180008c11.995314 0 21.99141 9.996095 21.99141 21.99141v234.708317l240.30613 138.345958c3.598594 1.999219 6.397501 5.597813 7.597032 9.596252 1.199531 3.998438 0.399844 8.39672-1.599375 11.995314L775.896915 566.128856c-4.398282 7.597032-13.994533 10.395939-21.991409 5.997657l-244.704413-140.345178-243.105037 139.945334z"  horiz-adv-x="1024" />

    
    <glyph glyph-name="kongzhi" unicode="&#59151;" d="M46.02316 664.4h93.6c18.4-53.2 68.4-88 127.2-88 54 0 103.6 35.2 126 88h584.8c26.8 0 46.4 19.6 46.4 47.2 0 27.2-19.6 47.2-46.4 47.2H394.02316c-18.4 52.8-68.4 88-127.2 88-54 0-103.6-35.2-126-88H46.42316c-12.4 0.4-24.4-4.4-33.2-13.2C4.42316 736.4-0.37684 724 0.02316 711.2l0.4-5.2 0.4-2c8-24 26-39.6 45.2-39.6z m220.8 92.8c26.4 0 44.8-18.8 44.8-45.6v-0.4c0.4-12-4-24-12.4-32.4-8.4-8.4-20-13.2-32-12.8h-0.4c-22 0-40.4 20.4-40.4 45.6 0.4 24.8 18.4 45.6 40.4 45.6zM1018.42316 63.2c-7.2 22.8-23.6 37.2-41.6 37.2h-408c-17.2 52.8-66.4 88-124.4 88-55.6 0-102.4-33.6-123.2-88H46.82316c-11.6 0.4-22.8-4-30.8-12s-12.4-19.6-12-30.8c-0.4-11.6 4-22.8 12-30.8 8-8.4 19.2-12.8 30.4-12H320.42316c17.2-52.8 66.4-88 124.4-88 55.6 0 102.4 33.6 123.2 88h408.8c11.6-0.4 22.8 4 30.8 12 8 8.4 12.4 19.6 12 31.2l-0.8 4.4-0.4 0.8z m-524.8-6c0.4-13.2-4.4-26-13.6-35.2-9.2-9.2-21.6-14.4-34.8-14h-0.8c-12.8-0.4-25.6 4.8-34.8 14-9.2 9.2-14 22.4-13.6 35.6 0 28.8 20.4 49.6 48.8 49.6 27.6 0 48.8-21.6 48.8-50zM977.22316 417.6H924.42316c-16.4 54.4-63.6 88-124.8 88-53.2 0-102-35.2-123.2-88H46.42316c-24.4 0-42.4-18-42.4-43.2 0-25.2 17.6-43.2 42.4-43.2h628.8c17.2-52.8 66.4-88 124.4-88 53.2 0 102 35.2 123.2 88h54c11.6-0.4 22.8 4 30.8 12 8 8.4 12.4 19.6 12 31.2l-0.8 4.4-0.4 1.2c-7.2 22.8-23.6 37.6-41.2 37.6zM848.42316 374.4c0-29.2-25.6-49.6-48.8-49.6h-0.4c-13.2-0.4-25.6 4.8-34.8 14-9.2 9.2-14 22.4-13.6 35.6 0 28.8 20.4 49.6 48.8 49.6s48.8-20.8 48.8-49.6z"  horiz-adv-x="1024" />

    
    <glyph glyph-name="shouquanguanlimoren" unicode="&#59152;" d="M417.6-118.8c28.4-17.2 51.2-5.6 51.2 28.4V308c0 34-22.8 68.4-51.2 85.2L87.2 598C58.8 609.2 36 598 36 569.6v-398.4c0-34 22.8-68.4 51.2-85.2l330.4-204.8zM138.4 723.2c-28.4-17.2-28.4-39.6 0-56.8l324.8-204.8c28.4-17.2 68.4-17.2 96.8-5.6l324.8 164.8c28.4 17.2 28.4 40 0 56.8L542.8 882.4c-22.8 17.2-68.4 17.2-96.8 0L138.4 723.2zM560-90.4c0-34 22.8-45.6 51.2-28.4l324.8 165.2c28.4 17.2 51.2 51.2 51.2 85.2V529.6c0 34-22.8 45.6-51.2 28.4l-324.8-165.2C582.8 376 560 342 560 308v-398.4z m0 0"  horiz-adv-x="1024" />

    
    <glyph glyph-name="peizhi" unicode="&#59153;" d="M767.2-126.8H255.6C114.8-126.8 0-12 0 128.8V639.6C0 780.4 114.8 894.8 255.6 894.8h511.6c140.8 0 255.6-114.8 255.6-255.6v-510.8c0-140.4-114.8-255.2-255.6-255.2zM255.6 802c-89.6 0-162.8-72.8-162.8-162.4v-510.8c0-89.6 73.2-162.4 162.8-162.4h511.6c89.6 0 162.8 72.8 162.8 162.4V639.6c0 89.6-73.2 162.4-162.8 162.4H255.6z m0 0M511.6 278.4c-58.4 0-106.4 47.6-106.4 106s47.6 106 106.4 106c28.4 0 55.2-11.2 75.2-31.2s31.2-46.8 31.2-74.8c0-58.8-48-106-106.4-106m248.8 152.8l-50 11.2-1.2 4c-3.2 10.4-7.6 20.8-13.2 31.6l-1.6 3.6 26.8 44.8c8.4 13.2 11.6 31.2 1.2 42l-25.2 25.2c-6.4 6.4-14.4 7.6-20.4 7.6-8 0-16.4-2.8-22.4-6.8l-43.6-28-3.6 2c-10.4 5.2-20.8 10-31.6 13.2l-3.6 1.2-11.2 50.4c-2.8 14.4-15.2 29.6-30.8 29.6h-35.6c-15.2 0-25.6-15.2-28.8-30.4L452 582.8l-3.6-1.2c-11.6-3.6-22.8-8.4-33.6-14l-3.6-2-44.8 28.4c-6 4.4-14.8 6.8-22.4 6.8-5.6 0-14-1.2-20.4-7.6L298.4 568c-10.8-10.8-7.2-28.8 1.2-42l28-46.8-1.6-3.6c-5.2-10.4-9.2-20.4-12.4-29.6l-1.2-4-50-11.2c-14.4-2.8-29.6-15.2-29.6-30.8v-35.6c0-15.2 15.2-25.6 30.4-28.8l50.4-12.4 1.2-3.6c2.8-9.2 6.8-18 11.2-27.6l1.6-3.6-28-46.8c-8.4-13.2-11.6-31.2-1.2-42l25.2-25.2c6.4-6.4 14.4-7.6 20.4-7.6 8 0 16.4 2.8 22.4 6.8l44.8 28.4 3.6-2c11.2-6 22.4-10.8 34-14l3.6-1.2 12.4-49.6c3.6-15.2 13.6-30.4 28.8-30.4h35.6c15.6 0 28.4 15.6 30.8 29.6l11.2 50.4 3.6 1.2c10.4 3.6 21.2 7.6 31.2 13.2l3.6 2 44-28c6-4.4 14.8-6.8 22.4-6.8 5.6 0 14 1.2 20.4 7.6l25.2 25.2c10.8 10.8 7.2 28.8-1.2 42l-26.8 44.8 1.6 3.6c4.8 10 9.2 19.6 12.4 29.6l1.2 3.6 50.4 12.4c15.2 3.6 30.4 13.6 30.4 28.8v35.6c0.8 16.8-14.8 29.2-29.2 31.6"  horiz-adv-x="1024" />

    
    <glyph glyph-name="shebeiguanli" unicode="&#59154;" d="M64 792h896c35.2 0 64-28.4 64-63.6v-186.4c0-35.2-28.8-63.6-64-63.6H64c-35.2 0-64 28.4-64 63.6V728.4C0 763.6 28.8 792 64 792z m95.6-125.6c-17.6 0-31.6-14-31.6-31.2s14-31.2 31.6-31.2h192.8c17.6 0 31.6 14 31.6 31.2s-14 31.2-31.6 31.2H159.6zM64 290h896c35.2 0 64-28.4 64-63.6V40c0-35.2-28.8-63.6-64-63.6H64c-35.2 0-64 28.4-64 63.6v186.4c0 34.8 28.8 63.6 64 63.6z m95.6-125.6c-17.6 0-31.6-14-31.6-31.2s14-31.2 31.6-31.2h192.8c17.6 0 31.6 14 31.6 31.2s-14 31.2-31.6 31.2H159.6z m0 0"  horiz-adv-x="1024" />

    
    <glyph glyph-name="bianji" unicode="&#59155;" d="M986.4-53.6H36.4c-20 0-36.4-16.4-36.4-36.4s16.4-36.4 36.4-36.4h950c20 0 36.4 16.4 36.4 36.4 0.4 20-16 36.4-36.4 36.4zM116.8 19.6h281.2L936.8 558c17.2 17.2 17.2 44.8 0 62L674 882.4c-17.2 17.2-44.8 17.2-62 0L73.2 344.4s0.4-262.8 0-274.8c-0.8-37.6 7.2-49.2 43.6-50zM622.4 762l196.8-197.6-114-110-194 194.8 111.2 112.8zM157.6 303.2l293.6 289.6 195.2-196.4L358.8 108l-201.2-0.4v195.6z m0 0"  horiz-adv-x="1024" />

    
    <glyph glyph-name="renwuguanli" unicode="&#59156;" d="M881.216901 671.729577L800.450704 766.557746 731.583099 842.997183c-28.84507 33.892958-71.391549 53.002817-115.740845 53.002817H153.239437c-40.743662 0-79.684507-16.225352-108.169014-45.070423C16.225352 822.44507 0 783.143662 0 742.760563V27.042254c0-84.732394 68.507042-153.239437 153.239437-153.239437h615.842253c40.743662 0 79.684507 16.225352 108.529578 45.070422s45.070423 67.785915 45.070422 108.529578V570.050704c-0.721127 37.859155-15.504225 74.276056-41.464789 101.678873zM627.380282 352.630986l-165.498592-204.439437c-9.374648-11.898592-23.797183-18.749296-38.940845-19.109859-15.143662-0.360563-29.566197 6.129577-39.301408 17.307042l-89.780282 102.4c-15.143662 21.273239-11.898592 50.478873 7.571831 67.785916 19.470423 17.307042 48.676056 17.307042 68.146479 0l49.757746-56.608451 128.721127 157.205634c9.374648 18.388732 28.84507 29.205634 49.397183 27.402817 20.552113-1.442254 37.859155-15.143662 44.709859-34.614085 6.490141-19.470423 1.08169-40.743662-14.422535-54.44507v-2.884507zM664.51831 578.704225c-16.225352 0-32.090141 6.490141-43.628169 18.028169-11.538028 11.538028-18.028169 27.042254-18.028169 43.628169V825.329577l230.760563-246.264788h-169.104225z m0 0"  horiz-adv-x="1024" />

    
    <glyph glyph-name="shouji" unicode="&#58901;" d="M197.4 776.5v-786c0-33.1 26.9-60 60-60h514c33.1 0 60 26.9 60 60v786c0 33.1-26.9 60-60 60h-514c-33.1 0-60-26.9-60-60z m240 15h154c5.5 0 10-4.5 10-10v-4c0-5.5-4.5-10-10-10h-154c-5.5 0-10 4.5-10 10v4c0 5.5 4.5 10 10 10z m79.4-831.9c-26.7-1.4-48.6 20.6-47.3 47.3 1.2 22.9 19.7 41.4 42.6 42.6 26.7 1.4 48.6-20.6 47.3-47.3-1.2-22.9-19.8-41.5-42.6-42.6z m201.1 121.9h-407c-11 0-20 9-20 20v604c0 11 9 20 20 20h407c11 0 20-9 20-20v-604c0-11-8.9-20-20-20z"  horiz-adv-x="1024" />

    
    <glyph glyph-name="xinxi" unicode="&#58902;" d="M512 832C264.6 832 64 631.4 64 384s200.6-448 448-448 448 200.6 448 448S759.4 832 512 832z m32-664c0-4.4-3.6-8-8-8h-48c-4.4 0-8 3.6-8 8V440c0 4.4 3.6 8 8 8h48c4.4 0 8-3.6 8-8v-272z m-32 344c-26.5 0-48 21.5-48 48s21.5 48 48 48 48-21.5 48-48-21.5-48-48-48z"  horiz-adv-x="1024" />

    
    <glyph glyph-name="yonghu" unicode="&#58903;" d="M682.667 343.467c68.266 51.2 113.066 134.4 113.066 226.133 0 155.733-128 283.733-283.733 283.733s-283.733-128-283.733-283.733c0-91.733 44.8-174.933 113.066-226.133C177.067 281.6 64 128 64-85.333h896C960 128 846.933 281.6 682.667 343.467z"  horiz-adv-x="1024" />

    
    <glyph glyph-name="yanzhengma" unicode="&#58904;" d="M895.744 622.72a59.2 59.2 0 0 1-46.72 51.936A1103.36 1103.36 0 0 0 697.92 709.44a561.28 561.28 0 0 0-135.008 78.912 61.76 61.76 0 0 1-72.16 0 354.112 354.112 0 0 0-136.032-78.4 507.264 507.264 0 0 0-146.944-36.32 55.04 55.04 0 0 1-46.208-51.936S160 491.36 160 376.64C160 168.96 405.056-32 527.616-32c122.528 0 330.24 141.76 363.456 405.504 8.32 155.776 2.56 248.704 2.56 248.704l2.112 0.544z m-133.44-160.416l-256-241.44c-11.52-10.976-29.12-12.704-42.56-4.16l-6.72 5.728-141.248 146.912a35.264 35.264 0 0 0 51.904 47.776L484 295.104l230.528 218.08a35.264 35.264 0 1 0 47.776-51.936v1.056z"  horiz-adv-x="1024" />

    
    <glyph glyph-name="mima1" unicode="&#58907;" d="M896.906 511.998h-63.998v63.998a320.004 320.004 0 0 1-639.995 0v-63.998H128.9a63.42 63.42 0 0 1-63.998-64.067v-511.93c0-33.888 28.235-63.998 63.998-63.998h766.116A63.42 63.42 0 0 1 959.015-64V447.93c1.875 33.886-28.235 63.997-62.123 63.997zM563.72 207.062v-158.12A48.598 48.598 0 0 0 514.777 0c-26.346 0-47.054 22.583-47.054 48.943V203.354c-30.124 16.943-50.818 48.942-50.818 84.705a95.997 95.997 0 1 0 191.994 0c0-33.888-18.818-63.998-45.179-80.942z m141.177 304.936H320.909v63.998c0 105.413 86.58 191.994 191.994 191.994s191.995-86.595 191.995-191.994v-63.998z"  horiz-adv-x="1024" />

    
    <glyph glyph-name="xiaoshuleixing" unicode="&#58890;" d="M352.48 291.76a36.64 36.64 0 0 1-26.08 10.72H271.16a36.6 36.6 0 0 1-36.8-36.68v-55a36.8 36.8 0 0 1 36.8-36.84H326.4a37.08 37.08 0 0 1 36.96 36.84v55a36.48 36.48 0 0 1-10.88 25.96zM566.84 291.76a36.72 36.72 0 0 1-26.08 10.72h-55.24a36.68 36.68 0 0 1-36.84-36.68v-55a36.88 36.88 0 0 1 36.84-36.84h55.24a37.08 37.08 0 0 1 36.96 36.84v55a36.64 36.64 0 0 1-10.88 25.96zM352.48 84.8a36.8 36.8 0 0 1-26.08 10.68H271.16a36.92 36.92 0 0 1-26.08-10.68 36.52 36.52 0 0 1-10.72-26v-55a36.52 36.52 0 0 1 10.72-26 36.96 36.96 0 0 1 26.08-10.8H326.4a36.88 36.88 0 0 1 26.08 10.8 36.52 36.52 0 0 1 10.88 26V58.8a36.52 36.52 0 0 1-10.88 26zM566.84 84.8a36.84 36.84 0 0 1-26.08 10.68h-55.24a36.8 36.8 0 0 1-26.08-10.68 36.4 36.4 0 0 1-10.76-26v-55a36.4 36.4 0 0 1 10.76-26 36.88 36.88 0 0 1 26.08-10.8h55.24a37 37 0 0 1 36.96 36.8V58.8a36.68 36.68 0 0 1-10.88 26zM776 293.52a30.32 30.32 0 0 1-22.76 10.48h-67.28a30.24 30.24 0 0 1-22.64-10.48 38.08 38.08 0 0 1-9.4-25.4v-264a38.12 38.12 0 0 1 9.4-25.44 30.76 30.76 0 0 1 22.8-10.64h67.16a30.72 30.72 0 0 1 22.76 10.64 38.2 38.2 0 0 1 9.52 25.44V268a38.28 38.28 0 0 1-9.56 25.52zM800.24 852A48 48 0 0 0 848 804.24v-840.48A48 48 0 0 0 800.24-84H223.76A48 48 0 0 0 176-36.24V804.24A48 48 0 0 0 223.76 852h576.48m0 44H223.76A91.76 91.76 0 0 1 132 804.24v-840.48A91.76 91.76 0 0 1 223.76-128h576.48A91.76 91.76 0 0 1 892-36.24V804.24A91.76 91.76 0 0 1 800.24 896zM719.12 356.36H304.88a91 91 0 0 0-90.88 90.92V721.48a90.96 90.96 0 0 0 90.88 90.88h414.24a90.96 90.96 0 0 0 90.88-90.88v-274.2a91 91 0 0 0-90.88-90.92z m-414.24 412A46.92 46.92 0 0 1 258 721.48v-274.2a46.96 46.96 0 0 1 46.88-46.92h414.24a46.96 46.96 0 0 1 46.88 46.92V721.48a46.92 46.92 0 0 1-46.88 46.88zM387.32 723.36q-40.44 0-61.84-30.6T304 604q0-112 78.92-112 39.56 0 60.52 30.56t20.96 86.76q0.08 114.04-77.08 114.04z m-2.88-195.64q-33.12 0-33.08 77.48 0 82.32 33.92 82.36 31.68 0 31.68-80t-32.52-79.84zM475.4 522.04a32.92 32.92 0 0 0 9.6 24.44A31.24 31.24 0 0 0 508 556a30.08 30.08 0 0 0 22.68-9.72 36.92 36.92 0 0 0 0-48.96 31.28 31.28 0 0 0-23.36-9.4 29.92 29.92 0 0 0-22.4 9.72 33.76 33.76 0 0 0-9.52 24.4zM618.04 534.68h94.92v-38.88H564v16.64a77.8 77.8 0 0 0 6.4 32 103.36 103.36 0 0 0 17.72 26.96 217.56 217.56 0 0 0 34.96 29.24 138.68 138.68 0 0 1 30.36 28.68 45.8 45.8 0 0 1 8.64 26.52q0 30.2-32.92 30.2-28.92 0-55.2-23.12V704.44A118.72 118.72 0 0 0 640 723.36q33.52 0 53.04-17.12t19.48-47.16a77.96 77.96 0 0 0-5.6-30.28 88.8 88.8 0 0 0-16.36-25.36 211.56 211.56 0 0 0-34.24-28.44 200 200 0 0 1-30.48-25c-5.2-6-7.8-11-7.8-15.32z"  horiz-adv-x="1024" />

    
    <glyph glyph-name="zhengshuleixing" unicode="&#58891;" d="M353.36 291.76a36.8 36.8 0 0 1-26.08 10.72H272a36.6 36.6 0 0 1-36.84-36.68v-55a36.52 36.52 0 0 1 10.72-26 36.92 36.92 0 0 1 26.12-10.84h55.28a37.08 37.08 0 0 1 36.96 36.84v55a36.64 36.64 0 0 1-10.88 25.96zM567.68 291.76a36.64 36.64 0 0 1-26.08 10.72h-55.24a36.6 36.6 0 0 1-36.8-36.68v-55a36.8 36.8 0 0 1 36.8-36.84h55.24a37.08 37.08 0 0 1 36.96 36.84v55a36.48 36.48 0 0 1-10.88 25.96zM353.36 84.8a36.92 36.92 0 0 1-26.08 10.68H272a36.96 36.96 0 0 1-26.12-10.68 36.52 36.52 0 0 1-10.72-26v-55a36.52 36.52 0 0 1 10.72-26 37.04 37.04 0 0 1 26.12-10.8h55.28a37 37 0 0 1 36.96 36.8V58.8a36.68 36.68 0 0 1-10.88 26zM567.68 84.8a36.8 36.8 0 0 1-26.08 10.68h-55.24a36.92 36.92 0 0 1-26.08-10.68 36.52 36.52 0 0 1-10.72-26v-55a36.52 36.52 0 0 1 10.72-26 37.04 37.04 0 0 1 26.08-10.8h55.24a36.88 36.88 0 0 1 26.08 10.8 36.52 36.52 0 0 1 10.88 26V58.8a36.52 36.52 0 0 1-10.88 26zM776.76 293.52a30.4 30.4 0 0 1-22.8 10.48H686.8a30.24 30.24 0 0 1-22.64-10.48 38.08 38.08 0 0 1-9.4-25.4v-264a38.12 38.12 0 0 1 9.4-25.44 30.68 30.68 0 0 1 22.64-10.68h67.16a30.76 30.76 0 0 1 22.8 10.64 38.2 38.2 0 0 1 9.52 25.44V268a38.28 38.28 0 0 1-9.52 25.52zM446.56 700.84V464H397.88V646.4a84.84 84.84 0 0 0-24.56-14 111.76 111.76 0 0 0-28.56-7.72V666.12a216.8 216.8 0 0 1 70.96 34.72zM577.4 504.24h98.36V464h-154.2v17.2a80.52 80.52 0 0 0 6.68 33.08 106 106 0 0 0 18.32 28 227.4 227.4 0 0 0 36.24 30.32 143.12 143.12 0 0 1 31.44 29.68 47.32 47.32 0 0 1 9 27.44q0 31.32-34.16 31.28-29.96 0-57.2-24V680A123.24 123.24 0 0 0 600 699.64q34.76 0 54.96-17.72t20.2-48.84a80.84 80.84 0 0 0-5.84-31.36 91.2 91.2 0 0 0-16.92-26.24 217.04 217.04 0 0 0-35.48-29.48 209.2 209.2 0 0 1-31.6-25.88c-5.32-6.12-7.92-11.4-7.92-15.88zM799.24 852a48 48 0 0 0 47.76-47.76v-840.48A48 48 0 0 0 799.24-84H222.76a48 48 0 0 0-47.76 47.76V804.24A48 48 0 0 0 222.76 852h576.48m0 44H222.76a91.76 91.76 0 0 1-91.76-91.76v-840.48A91.76 91.76 0 0 1 222.76-128h576.48a91.76 91.76 0 0 1 91.76 91.76V804.24A91.76 91.76 0 0 1 799.24 896zM717.36 357.48H303.16a91 91 0 0 0-90.92 90.88V722.6a91 91 0 0 0 90.92 90.88h414.2a90.96 90.96 0 0 0 90.88-90.88v-274.24a90.96 90.96 0 0 0-90.88-90.88z m-414.2 412a46.96 46.96 0 0 1-46.92-46.88v-274.24a46.96 46.96 0 0 1 46.92-46.88h414.2a46.92 46.92 0 0 1 46.88 46.88V722.6a46.92 46.92 0 0 1-46.88 46.88z"  horiz-adv-x="1024" />

    
    <glyph glyph-name="morentubiao" unicode="&#59145;" d="M938.4 823.6H85.2C38 823.6 0 785.6 0 738.4v-707.6c0-47.2 38.4-85.2 85.6-85.2h852.8c47.2 0 85.6 38.4 85.6 85.2v708c-0.4 46.8-38.4 84.8-85.6 84.8zM85.2 754.4h852.8c8.8 0 16-7.2 16-16v-610.8L692 502.4c-10.8 15.2-28.8 24.4-48 24.4-19.6 0-37.6-9.2-48-24.4l-186-267.2-102.4 110c-12 12.8-29.6 19.6-47.2 18.4-18-1.2-34.4-10.4-44-24.4l-146.8-211.6V738.4c-0.4 8.8 7.2 16 15.6 16z m0 0M237.2 526.8c43.2 0 78.4 35.2 78.4 78 0 43.2-35.2 78-78.4 78s-78.4-35.2-78.4-78 35.2-78 78.4-78z m0 102.4c13.2 0 24-10.8 24-24s-10.8-24-24-24-24 10.8-24 24 10.8 24 24 24z m0 0"  horiz-adv-x="1024" />

    
    <glyph glyph-name="zhuye" unicode="&#58885;" d="M114.6 518.6V-20.4h179.04v299.56h435.6v-299.56h180V518.6L512 764.84 114.6 518.68zM512 896l512-321.24V-128H614.64v299.56h-206.36V-128H0V574.76z"  horiz-adv-x="1024" />

    
    <glyph glyph-name="fangda" unicode="&#58886;" d="M1008.11876-36l-236.44 236.48a431.12 431.12 0 1 1-76.2-76.2L932.11876-112.2A53.88 53.88 0 0 1 1008.11876-36zM108.11876 464.88a323.36 323.36 0 1 0 323.28-323.36A323.64 323.64 0 0 0 108.11876 464.88zM589.91876 511H477.31876V623.6a46.12 46.12 0 1 1-92 0v-112.6H272.51876a46.12 46.12 0 1 1 0-92h112.6v-112.6a46.12 46.12 0 1 1 92 0v112.4h112.6a46.12 46.12 0 0 1 0 92z"  horiz-adv-x="1024" />

    
    <glyph glyph-name="shangchuan" unicode="&#58887;" d="M803.2 544.44A280.48 280.48 0 0 1 245.84 549.6C106.52 527.36 0 407.6 0 262.84 0 102.2 131-28 292.56-28h148.96v266.6H238.44L512 529.4l273.56-290.8H588V-28h168v1.24c150.16 12.32 268.2 137.16 268.2 289.6a291 291 0 0 1-220.8 281.6z"  horiz-adv-x="1024" />

    
    <glyph glyph-name="wenjian" unicode="&#58888;" d="M305.680314 306.760898a31.599952 31.599952 0 1 0 0 63.159903h411.479373a31.599952 31.599952 0 1 0 0-63.159903z m0 150.039771a31.599952 31.599952 0 1 0 0 63.159904h308.199531a31.599952 31.599952 0 1 0 0-63.159904z m0 158.199759a31.599952 31.599952 0 1 0 0 63.159904h411.479373a31.599952 31.599952 0 1 0 0-63.159904zM192.000487-127.99844a107.999835 107.999835 0 0 0-107.999835 107.439836V788.560164A107.999835 107.999835 0 0 0 192.000487 896h639.999026a107.999835 107.999835 0 0 0 107.999835-107.439836v-646.399016a35.319946 35.319946 0 0 0-7.639988-21.839966l-186.239717-234.879642a35.199946 35.199946 0 0 0-27.999957-13.43998z m0 953.358548a36.999944 36.999944 0 0 1-36.999943-36.799944v-809.118768a37.039944 37.039944 0 0 1 36.999943-36.799944h467.639288v144.199781a107.999835 107.999835 0 0 0 107.999836 107.439836h101.359845V788.560164a37.039944 37.039944 0 0 1-36.999943 36.799944z m575.639124-701.718931a36.999944 36.999944 0 0 1-36.959944-36.799944V-19.998605l113.879826 143.639782z"  horiz-adv-x="1024" />

    
    <glyph glyph-name="shaixuan" unicode="&#58882;" d="M566.2524-116a33.84 33.84 0 0 0-33.72 33.8V496a33.96 33.96 0 0 0 8 22.04l255.8 298.36H103.0924l234.68-299.48a33.8 33.8 0 0 0 7.2-20.88v-345.2l101.48-101.84a33.76 33.76 0 0 0-47.68-47.76l-111.28 111.68a33.88 33.88 0 0 0-9.88 24v347.4L7.2524 829.28A33.8 33.8 0 0 0 33.7324 884h836a33.8 33.8 0 0 0 33.68-33.8 33.88 33.88 0 0 0-8-22.04L600.0524 483.52v-565.72a33.76 33.76 0 0 0-33.64-33.8zM729.6924-25.96A33.72 33.72 0 0 0 696.0524 8a33.76 33.76 0 0 0 33.64 33.76h260.68a33.8 33.8 0 0 0 0-67.6h-260.68z m0 211.56a33.84 33.84 0 0 0 0 67.64h260.68a33.84 33.84 0 0 0 0-67.64h-260.68z m0 209.16a33.8 33.8 0 0 0 0 67.6h260.56a33.8 33.8 0 0 0 0-67.6z"  horiz-adv-x="1024" />

    
    <glyph glyph-name="xiazai" unicode="&#58883;" d="M1003.846183 238.565602v-309.703145A57.022167 57.022167 0 0 0 946.664066-127.99976H77.375922A57.062155 57.062155 0 0 0 20.153817-71.137543v309.703145a57.182117 57.182117 0 0 0 114.364235 0v-252.840928h754.963896v252.840928a57.182117 57.182117 0 0 0 114.364235 0z m-532.673415-71.297702a57.382055 57.382055 0 0 1 81.694451 0l228.168644 231.647555a56.622292 56.622292 0 0 1-0.839737 80.414852 57.46203 57.46203 0 0 1-80.894702-0.839737l-130.119307-131.958732V838.817883a57.182117 57.182117 0 0 1-114.364234 0v-492.406008l-130.07932 131.958732a57.46203 57.46203 0 0 1-80.894701 0.839737 56.66228 56.66228 0 0 1-0.839738-80.414851z"  horiz-adv-x="1024" />

    
    <glyph glyph-name="zhankai" unicode="&#58884;" d="M512.04856 442.88L90.60856 864a53.48 53.48 0 0 1-75.4 1 53.32 53.32 0 0 1 1.04-75.32l457.16-456.76a54.96 54.96 0 0 1 19.04-12 50.28 50.28 0 0 1 7.36-1.64 59.44 59.44 0 0 1 12.24-2.16 57.84 57.84 0 0 1 12.2 2.16 52.72 52.72 0 0 1 7.36 1.64 53.48 53.48 0 0 1 19.04 12L1008.04856 789.64a53.16 53.16 0 0 1 1.16 75.24 53.32 53.32 0 0 1-75.28-1.12zM512.04856 13.84L90.60856 434.84A53.44 53.44 0 0 1 15.20856 436 53.2 53.2 0 0 1 16.04856 360.68L473.32856-96a54.76 54.76 0 0 1 19.08-12 40.48 40.48 0 0 1 7.4-1.56 54.6 54.6 0 0 1 12.24-2.44 54 54 0 0 1 12 2.24 68.28 68.28 0 0 1 7.44 1.56 53.48 53.48 0 0 1 19.04 12l457.28 456.8a53.16 53.16 0 0 1 1.28 75.24 53.4 53.4 0 0 1-75.36-1.04z"  horiz-adv-x="1024" />

    
    <glyph glyph-name="jiedian" unicode="&#58881;" d="M887.76 171.76a136 136 0 0 1-110.2-56.56l-144 73.92a194.2 194.2 0 0 1 18.44 82.24 191.76 191.76 0 0 1-24 92l84 34.68a129.84 129.84 0 0 1 28.56-34.52 136 136 0 1 1-15.76 191.36 134.76 134.76 0 0 1-28-120.36l-91.64-37.76a195.28 195.28 0 0 1-129.76 68.32V598.36a136.24 136.24 0 1 1-39.68 0v-133.28a193.8 193.8 0 0 1-128.2-320.68l-59.28-30.44a136 136 0 1 1 24-77.04 134.12 134.12 0 0 1-7.04 41.24l72.76 37.32a194.52 194.52 0 0 1 275 39.56L759.56 80a133.92 133.92 0 0 1-8-44 136.24 136.24 0 1 1 136.24 136z"  horiz-adv-x="1024" />

    
    <glyph glyph-name="duankailianjie" unicode="&#59140;" d="M538.8046 184.39999999999998l-165.6-165.2-2-2c-63.2-60.8-165.2-60-227.2 2-30.8 30.4-47.6 71.2-47.6 114.4s16.8 84 47.6 114.4l165.6 165.2 0.8 0.8c18 18.8 17.6 48.8-0.8 67.2-9.2 9.2-21.2 14-34 14s-24.8-5.2-34-14L75.6046 316l-2.8-2.8C25.2046 264.4-0.3954 200 0.0046 132c0.4-68 27.6-132.4 75.6-180.4C126.0046-98.79999999999995 192.4046-124 258.4046-124c66.4 0 132.4 25.2 182.8 75.6l165.6 165.2 0.8 0.8c18 18.8 17.6 48.8-0.8 67.2-18.4 18.4-49.2 18.4-68-0.4zM307.2046 669.6l-0.8 0.8c-18.8 17.6-49.2 16.8-67.2-1.6-8.8-9.2-14-21.2-13.6-34 0-12.8 5.2-24.8 14.4-34l493.2-481.2 0.8-0.8c9.2-8.8 21.2-12.8 32.8-12.8 12.4 0 24.8 4.8 34.4 14.4 8.8 9.2 14 21.2 13.6 34 0 12.8-5.2 24.8-14.4 34L307.2046 669.6zM948.4046 816.4c-100.8 100.4-264.8 100.4-365.6 0l-165.6-165.2-0.8-0.8c-18-18.8-17.6-48.8 0.8-67.2 18.8-18.8 49.2-18.8 68 0l165.6 165.2 2 2c63.2 61.2 165.2 60.4 227.6-2 30.8-30.4 47.6-71.2 47.6-114.4s-16.8-84-47.6-114.4l-165.6-165.2-0.8-0.8c-18-18.8-17.6-48.8 0.8-67.2 9.2-9.2 21.6-14 34-14 12.4 0 24.8 4.8 34 14l165.6 165.2 2.8 2.8C998.8046 503.6 1024.4046 568 1024.0046 636c-0.4 68.4-27.6 132.4-75.6 180.4z"  horiz-adv-x="1024" />

    
    <glyph glyph-name="bukejian" unicode="&#59141;" d="M916.72 226.84c75.24 83.48 104.04 166.04 104.64 167.64 3.56 10.52 3.56 21.84 0 32.36-1.04 3.44-118.36 341.76-508.6 341.76-45.28 0-86.56-4.92-124.76-13.04l90.8-90.8c11.08 0.68 22.2 1.48 33.84 1.48 273.6 0 379.6-196.68 405.24-255.68a440.112 440.112 0 0 0-72.6-112.52l71.44-71.2z m-404.08-174c93.88 0 171.52 19.88 236 49.64l159.72-159.72a39.932 39.932 0 0 1 56.6 0l15.68 15.68a39.932 39.932 0 0 1 0 56.6L116.92 878.72a39.932 39.932 0 0 1-56.6 0l-15.68-15.68a39.932 39.932 0 0 1 0-56.6l141.44-141.44C52.4 565.2 4.72 429.12 3.92 426.96a50.36 50.36 0 0 1 0-32.36c1.16-3.44 118.48-341.76 508.72-341.76zM258.56 592.52l116.16-116.16c-26.64-56.96-17.28-127.36 29.4-174.04 46.64-46.64 117.08-56.16 174.04-29.4l92.04-92.04a469.98 469.98 0 0 0-157.56-25.72c-273.6 0-379.6 196.68-405.24 255.68 32.84 73.16 85.2 135.92 151.16 181.68z"  horiz-adv-x="1024" />

    
    <glyph glyph-name="luru" unicode="&#59142;" d="M608.6-126.72l139.6 69.24 14.08 20.68-140.64 95.84-14.24-20.88-16-152.92c-0.96-9.4 8.76-16.16 17.2-11.96zM637.56 82.436l187.296 274.924 140.652-95.82-187.3-274.928zM995.36 395.68l-56.6 38.56c-32.36 22.04-48.6 18.96-70.64-13.4l-27.28-40.04 140.64-95.8 27.24 40c22.12 32.36 19.04 48.6-13.36 70.68zM782.28 892c44.76 0 81.68-34.12 86.08-77.72l0.4-8.84v-318.28c-0.04-21.88-16.96-40.08-38.8-41.68-21.84-1.6-41.24 13.88-44.48 35.52l-0.48 6.16V805.44a2.8 2.8 0 0 1-1.36 2.4l-1.4 0.4H89.88c-1 0-1.92-0.56-2.4-1.4l-0.32-1.4v-804.04c0-1 0.52-1.96 1.36-2.4l1.4-0.4h402.04c21.92 0 40.12-16.92 41.72-38.76 1.64-21.84-13.84-41.28-35.52-44.52l-6.24-0.48H89.88c-44.36 0-81.56 33.56-86.08 77.72l-0.4 8.84V805.44c0 44.84 34.04 81.68 77.72 86.08L89.88 892h692.4zM547.76 445.28c21.88-0.04 40.04-16.96 41.68-38.8 1.6-21.84-13.84-41.24-35.52-44.48l-6.16-0.48H212.76c-21.92 0-40.12 16.92-41.72 38.76-1.64 21.84 13.84 41.28 35.52 44.52l6.24 0.48h334.96zM659.4 668.6c21.92 0 40.12-16.92 41.76-38.76 1.64-21.84-13.84-41.28-35.52-44.52l-6.24-0.48H212.76c-22.08-0.24-40.56 16.72-42.2 38.76a41.888 41.888 0 0 0 36 44.6l6.24 0.4h446.6zM464 221.96c22.08 0.2 40.52-16.76 42.16-38.8 1.64-22-14.12-41.52-36-44.56l-6.16-0.4H212.76c-21.92 0-40.12 16.92-41.72 38.76-1.64 21.84 13.84 41.28 35.52 44.52l6.24 0.48H464z"  horiz-adv-x="1024" />

    
    <glyph glyph-name="kejian" unicode="&#59143;" d="M512.64 605.36c-84.52-0.56-152.88-68.96-153.36-153.48 0-83.92 69.4-153.36 153.36-153.36s153.48 69.4 153.48 153.36c-0.12 83.96-69.52 153.48-153.48 153.48zM512.72 809.88c-390.32 0-507.64-338.4-508.68-341.8a50.36 50.36 0 0 1 0-32.36c1.04-3.44 118.36-341.72 508.68-341.72s507.64 338.4 508.68 341.8c3.56 10.52 3.56 21.84 0 32.36-1.04 3.36-118.4 341.72-508.68 341.72z m0-613.64c-273.64 0-379.68 196.68-405.28 255.72 25.72 59.24 131.84 255.72 405.28 255.72 273.64 0 379.68-196.68 405.28-255.72-25.76-59.24-131.88-255.72-405.28-255.72z"  horiz-adv-x="1024" />

    
    <glyph glyph-name="lianjie" unicode="&#59144;" d="M948.4 820C899.2 869.2 834.4 896 765.2 896c-69.2 0-134.4-26.8-183.2-76l-178.8-178.8c-100.8-100.8-100.8-265.2 0-366.4 8.8-8.8 21.2-14 34-14s24.8 5.2 34 14c9.2 9.2 14 21.2 14 34s-5.2 24.8-14 34c-63.6 63.6-63.6 166.8 0 230.4L650 752c29.2 29.2 71.2 46 115.2 46s86-16.8 115.2-46c30.8-30.8 47.6-71.6 47.6-115.2 0-43.6-16.8-84.4-47.6-115.2L790.8 432c-9.2-9.2-14-21.2-14-34s5.2-24.8 14-34c18.8-18.8 49.2-18.8 68 0l89.6 89.6C997.2 502.8 1024 567.6 1024 636.8c0 69.6-26.8 134.4-75.6 183.2zM586.8 506.8c-12.8 0-24.8-5.2-34-14-18.8-18.8-18.8-49.2 0-68 30.8-30.8 47.6-71.6 47.6-115.2s-16.8-84.4-47.6-115.2l-178.8-178.8C310.4-48 207.2-48 144 15.600000000000023c-30.8 30.8-47.6 71.6-47.6 115.2 0 43.6 16.8 84.4 47.6 115.2l89.6 89.6c18.8 18.8 18.8 49.2 0 68-18.8 18.8-49.2 18.8-68 0L76 314C26.8 265.20000000000005 0 200 0 130.79999999999995c0-69.2 26.8-134 76-183.2C124.8-101.20000000000005 189.6-128 258.8-128c69.2 0 134.4 26.8 183.2 75.6l178.4 178.8c48.8 48.8 75.6 114 75.6 183.2s-26.8 134.4-75.6 183.2c-8.8 8.8-20.8 14-33.6 14z"  horiz-adv-x="1024" />

    
    <glyph glyph-name="doubt_circle" unicode="&#59139;" d="M570.8 315.20000000000005c-0.8 12.4 6.8 25.2 22.8 38.8 16 13.6 34 28.8 53.6 45.6 20 16.8 38 35.6 54.8 56.4s26 45.2 27.6 72.4c1.6 29.6-1.6 57.6-9.2 83.2-7.6 26-20 48-37.6 66.8-17.6 18.8-40.4 33.6-68 44.4-28 10.8-60.4 16.4-97.6 16.4-46.4 0-85.2-8-116-24.4-30.8-16.4-56-36.4-74.8-59.6s-32.4-47.2-40-72c-7.6-24.8-10.8-45.6-10.4-62.4 0.8-19.6 7.2-34 18.8-43.2 12-9.2 24.8-14 38.4-14.4 13.6-0.4 26.4 3.6 37.6 11.2 11.6 8 17.2 19.6 17.2 34.8 0 9.2 2.8 20.4 8.4 33.6 5.6 13.2 13.6 26 23.2 38.4 10 12.4 22 22.4 36 30.8 14 8.4 30 12.4 47.6 12.4 34.4 0 61.6-8.8 82.4-25.6 20.4-17.2 30-38.8 28.4-64.4 0-12.8-4-24.8-11.6-36-7.6-10.8-17.2-21.6-29.2-32-12.4-10.8-24.8-20.8-37.6-30.8-13.2-10.4-26-20.8-37.6-32-12-10.8-21.6-23.2-29.6-36s-12.4-27.2-13.2-42.4l1.2-43.2c0-11.2 5.2-22.4 16-32.4 10.4-10.4 24.8-16 42.4-16.4 17.2 0.8 31.6 6.4 41.6 17.2 10.4 10.8 15.2 22.8 14.4 36.4v27.2zM512.4 34.39999999999998c19.6 0 36.4 6.8 49.6 20 13.2 13.2 20 29.6 20 48.4 0 19.6-6.8 36.4-20 49.6-13.2 13.2-30 20-49.6 20-20 0-36.4-6.8-50-20-13.2-13.2-20-30-20-49.6 0-19.2 6.8-35.2 20-48.4 13.6-13.6 30.4-20 50-20zM511.2 895.2c70.8 0 137.6-13.6 199.6-40.4 62.4-27.2 116.4-63.6 162.8-109.6 46.8-46 83.2-100 110-162 26.8-62 40-128.4 40-199.2s-13.2-137.2-40-198.8c-26.8-61.6-63.2-115.6-110-162-46.4-46.4-100.8-82.8-162.8-109.6-62-26.8-128.4-40-199.6-40-70.8 0-137.2 13.2-198.8 40-61.6 26.8-116 63.2-162.4 109.6-46.4 46.4-83.2 100.4-110 162-26.8 61.6-40 128-40 198.8s13.2 137.2 40 199.2 63.2 116 110 162C196.4 791.2 250.8 827.6 312.4 854.8 374 882 440.4 895.2 511.2 895.2z"  horiz-adv-x="1024" />

    
    <glyph glyph-name="edit_circle" unicode="&#59137;" d="M512 896C229.2 896 0 666.8 0 384s229.2-512 512-512 512 229.2 512 512S794.8 896 512 896z m46-567.6l-48.4-48.8c-16-15.6-30.8-30-43.6-43.2-12.8-13.2-23.6-24-32-32.4-8.4-8.4-13.6-13.2-15.2-14.4-4-3.6-8.8-7.6-14-11.6s-10.8-7.2-16.4-9.6c-5.6-2.8-14-6.4-24.8-10.4s-22.4-8-34-11.6c-12-4-23.2-7.2-34-10s-18.8-4.8-24-5.2c-10.8-1.2-18 0.4-21.6 4.8s-4.8 12-3.2 22.4c0.8 5.6 2.8 13.6 5.6 24.4 3.2 10.8 6.4 21.6 9.6 33.2s6.8 22 10 31.6c3.2 9.6 6 16.4 8 20 2.4 5.6 5.2 10.8 8 15.2s7.2 9.6 13.2 15.2c2.4 2.4 8 8 16.8 17.2s20 20.4 33.2 33.6l224 223.2 112.8-113.6-130-130z m216.8 220.8c-2-5.2-5.2-10.4-9.6-15.2-4.8-4.8-9.2-9.2-13.2-12.8s-7.2-6.8-10-9.6c-3.2-3.2-6.4-6-9.2-8.4L620 616c4.8 4.4 10.8 9.6 17.2 16s12 11.2 16.8 14.8c5.6 4.4 11.6 7.6 17.6 9.2s12 2.8 17.6 2.4c6-0.4 11.6-1.2 16.8-2.8s10-3.2 14.4-5.2c8.4-4.4 17.6-12 28-23.2 10.4-11.2 18.4-22.8 24-34.8 1.6-3.6 2.8-8 4-12.8 1.2-4.8 1.6-10 1.6-15.2s-0.8-10-3.2-15.2z"  horiz-adv-x="1024" />

    
    <glyph glyph-name="wrong_circle" unicode="&#59138;" d="M984 583.2c-26.8 62.4-63.2 116.4-110 162.4-46.4 46.4-100.8 82.8-163.2 110C648.8 882.4 582.4 896 511.2 896c-70.8 0-137.2-13.6-198.8-40.8-62-27.2-116-63.6-162.4-110-46.4-46-83.2-100-110-162-26.8-62.4-40-128.8-40-199.6s13.2-137.2 40-199.2 63.2-116 110-162.4 100.8-83.2 162.4-110c61.6-26.8 128-40 198.8-40 71.2 0 137.6 13.2 199.6 40 62.4 26.8 116.4 63.2 163.2 110 46.4 46.8 83.2 100.8 110 162.4 26.8 62 40 128 40 199.2s-13.2 137.2-40 199.6zM753.2 216c19.6-19.6 19.6-51.2 0-70.8l-2-2c-19.6-19.6-51.2-19.6-70.8 0l-168 167.6-167.6-167.6c-19.6-19.6-51.2-19.6-70.8 0l-2 2c-19.6 19.6-19.6 51.2 0 70.8l167.6 168L272 551.6c-19.6 19.6-19.6 51.2 0 70.8l2 2c19.6 19.6 51.2 19.6 70.8 0l168-167.6 167.6 167.6c19.6 19.6 51.2 19.6 70.8 0l2-2c19.6-19.6 19.6-51.2 0-70.8l-167.6-168 167.6-167.6z"  horiz-adv-x="1024" />

    
    <glyph glyph-name="zhanghao" unicode="&#59136;" d="M950.228817 69.522843c-5.997657 36.785631-18.392815 71.172198-36.785631 102.360015-17.992971 30.38813-41.183913 57.177665-69.172979 79.968762-27.989067 22.391253-59.576728 39.984381-94.762983 51.979696-35.586099 12.395158-73.571261 18.392815-113.155799 18.392815H387.648575c-38.78485 0-76.370168-6.397501-111.956267-18.392815-34.386568-11.995314-65.974229-29.588442-93.963296-51.979696S130.549004 202.670832 112.556033 172.282702c-18.392815-31.187817-31.587661-65.574385-37.985162-102.360016-0.399844-1.199531-5.19797-32.387349-0.399844-60.776259 6.397501-46.781726 41.9836-93.563452 86.766107-113.955486 43.982819-19.992191 99.161265-22.791097 141.944553-22.791097 7.996876 0 15.593909 0 23.190941 0.399844 7.197189 0 14.394377 0.399844 21.991409 0.399843 13.59469 0.399844 26.389692 0.399844 38.78485 0.399844h249.502538c5.997657 0 11.995314 0 18.392816-0.399844 6.797345 0 13.194846-0.399844 19.99219-0.399843 14.794221-0.399844 29.588442-0.799688 45.182351-0.799688 34.786412 0 79.568918 1.599375 119.553299 14.394377 57.177665 18.392815 96.362358 62.775478 108.357673 121.952363 6.797345 25.989848 2.798907 59.576728 2.399063 61.176103zM387.648575 231.85943h249.502538c119.953143 0 217.115189-81.168294 227.111285-189.126123-3.598594-37.985162-18.392815-57.977353-50.780164-68.373291-33.986724-10.795783-85.966419-10.395939-152.340492-10.395939H362.058571c-65.974229-0.399844-117.55408-0.399844-151.540805 9.596251-31.987505 9.596251-46.381882 27.989067-49.980476 63.175322 9.596251 113.155799 105.158922 195.12378 227.111285 195.12378zM512.399844 348.213979c150.341273 0 272.693479 122.75205 272.693479 273.89301S662.341273 896 512.399844 896 239.706365 773.24795 239.706365 622.106989 362.058571 348.213979 512.399844 348.213979zM383.250293 751.656384c34.386568 34.386568 79.968762 53.579071 128.749707 53.579071 100.76064 0 182.728622-81.967981 182.728622-183.128466s-81.967981-183.128465-182.728622-183.128465c-100.360797 0-182.328778 81.967981-182.328778 183.128465 0.399844 49.580633 19.192503 95.562671 53.579071 129.549395z"  horiz-adv-x="1024" />

    
    <glyph glyph-name="xianshixuanxiang" unicode="&#59134;" d="M512 529.2c-80.4 0-145.6-63.2-145.6-145.6s63.2-145.6 145.6-145.6 145.6 63.2 145.6 145.6-63.2 145.6-145.6 145.6z m0-232.8c-49.6 0-87.2 37.6-87.2 87.2s37.6 87.2 87.2 87.2 87.2-37.6 87.2-87.2-37.6-87.2-87.2-87.2zM512 896C229.2 896 0 666.8 0 384s229.2-512 512-512 512 229.2 512 512S794.8 896 512 896z m0-731.6c-145.6 0-272.4 90.8-322 219.2C239.6 512 366.4 602.8 512 602.8s272.4-90.8 322-219.2c-49.6-128.4-176.4-219.2-322-219.2z"  horiz-adv-x="1024" />

    
    <glyph glyph-name="xiaoxi" unicode="&#59135;" d="M514.8 895.2C234 895.2 4 697.2 4 460.8c0-146.8 83.2-281.2 230-364l64-32-38.4-191.6 255.2 146.8c274.4 0 504.4 198 504.4 434.4C1025.6 697.2 795.6 895.2 514.8 895.2zM316.8 416.4c-38.4 0-64 32-64 64 0 38.4 32 64 64 64 38.4 0 64-32 64-64 0-32.4-25.6-64-64-64z m198 0c-38.4 0-64 32-64 64 0 38.4 32 64 64 64s64-32 64-64-25.6-64-64-64z m198 0c-38.4 0-64 32-64 64 0 38.4 32 64 64 64 38.4 0 64-32 64-64s-26-64-64-64z"  horiz-adv-x="1024" />

    
    <glyph glyph-name="sun" unicode="&#59133;" d="M996.8 267.6l-84.4 107.2c-8.8 11.2-9.2 27.2-0.8 38.8l78.8 111.2c12.8 18.4 4 44-17.6 50L841.6 612c-14 4-23.6 16.4-23.6 30.8l-2 136.8c-0.4 22.4-22.8 38-43.6 30l-128-47.2c-13.6-5.2-28.8-0.4-37.2 11.2L525.6 882.8c-13.6 18-40.8 17.2-53.2-1.2L396.8 768c-8-12-22.8-17.2-36.8-12.8L230 795.6c-21.6 6.8-43.2-10-42-32.4l5.2-136.4c0.8-14.4-8.4-27.6-22-32L42 551.2C20.8 544 13.2 518 26.8 500.4l84.4-107.2c8.8-11.2 9.2-27.2 0.8-38.8L33.6 242.79999999999995c-12.8-18.4-4-44 17.6-50l131.2-37.2c14-4 23.6-16.4 23.6-30.8l1.6-136.4c0.4-22.4 22.8-38 43.6-30l128 47.2c13.6 5.2 28.8 0.4 37.2-11.2l81.6-109.2c13.6-18 40.8-17.2 53.2 1.2l75.6 113.2c8 12 22.8 17.2 36.8 12.8l130-40.4c21.6-6.8 43.2 10 42 32.4l-5.6 136.4c-0.8 14.4 8.4 27.6 22 32l129.2 43.6c22 7.6 29.6 33.6 15.6 51.2zM512 58.39999999999998c-179.6 0-325.2 145.6-325.2 325.6S332.4 709.6 512 709.6 837.2 564 837.2 384s-145.6-325.6-325.2-325.6z"  horiz-adv-x="1024" />

    
    <glyph glyph-name="folder" unicode="&#59132;" d="M375.2 828c22 0 44-7.2 61.2-20.4l82-61.2c18-13.2 39.2-20.4 61.2-20.4h341.6c56.8 0 102.4-45.6 102.4-102.4v-580.4c0-56.8-45.6-102.4-102.4-102.4H102.4C45.6-59.60000000000002 0-13.600000000000023 0 42.799999999999955V457.6h1024V526.4H0V725.6C0 782.4 45.6 828 102.4 828h272.8z m34.4-522.4H204.8c-18.8 0-34.4-15.6-34.4-34.4s15.2-34.4 34.4-34.4h204.8c18.8 0 34.4 15.6 34.4 34.4 0 19.2-15.6 34.4-34.4 34.4z"  horiz-adv-x="1024" />

    
    <glyph glyph-name="shuju" unicode="&#59129;" d="M908 700.4L594.8 876.8c-52.4 25.6-113.2 25.6-165.6 0L114.8 700.4C66 669.6 35.2 617.6 32 560.4v-352.8c3.2-57.2 34-109.6 82.8-140l314.4-176.4c52.4-25.6 113.2-25.6 165.6 0l313.2 176.4c49.2 30.4 80.8 82.4 84 140V560.4c-3.2 57.6-34.8 110-84 140zM867.6 348c0-6.8-5.6-12.4-12.4-12.4h-80.4l-134-133.2c-2.4-2.4-5.6-3.6-8.8-3.6h-31.2c-4 0-7.6 2-10 5.2l-181.2 245.6-111.2-110.8c-2.4-2.4-5.6-3.6-8.8-3.6-1.2 0-2.4 0-3.6 0.4h-116c-6.8 0-12.4 5.6-12.4 12.4v72c0 6.8 5.6 12.4 12.4 12.4h80.4l134 133.2c2.4 2.4 5.6 3.6 8.8 3.6h31.2c4 0 7.6-2 10-5.2l181.2-245.6 110.8 110.4 0.4 0.4c2.4 2.4 5.6 3.6 8.8 3.6 1.2 0 2.4 0 3.6-0.4h116c6.8 0 12.4-5.6 12.4-12.4v-72z"  horiz-adv-x="1024" />

    
    <glyph glyph-name="shujuziyuan" unicode="&#59130;" d="M944.8 856H79.2C35.2 856 0 820.8 0 776.8v-590.4c0-44 35.2-79.2 79.2-79.2h393.2v-116.4H195.6c-26.4 0-39.6-13.2-39.6-39.6 0-26.4 13.2-39.6 39.6-39.6h630.8c26.4 0 39.6 13.2 39.6 39.6 0 26.4-13.2 39.6-39.6 39.6h-274.8v116.4h393.2c44 0 79.2 35.2 79.2 79.2V776.8c0 44-35.2 79.2-79.2 79.2zM312 324.8c-90 0-162.8 72.4-162.8 162.4S221.6 649.6 312 649.6c90 0 162.8-72.4 162.8-162.4H312v-162.4z m44-44v162.4h162.8c-0.4-90-72.8-162.4-162.8-162.4z m292.4 68c0-15.2-10.8-28.4-28.4-28.4-15.2 0-28.4 10.8-28.4 28.4V502.4c0 15.2 10.8 28.4 28.4 28.4 15.2 0 28.4-10.8 28.4-28.4v-153.6z m114 0c0-15.2-13.2-28.4-28.4-28.4s-28.4 10.8-28.4 28.4V559.6c0 15.2 10.8 28.4 28.4 28.4 15.2 0 28.4-10.8 28.4-28.4v-210.8z m114.4 0c0-15.2-10.8-28.4-28.4-28.4-17.6 0-28.4 10.8-28.4 28.4v268c0 15.2 10.8 28.4 28.4 28.4 17.6 0 28.4-10.8 28.4-28.4v-268z"  horiz-adv-x="1024" />

    
    <glyph glyph-name="shujubeifen" unicode="&#59131;" d="M810.8 812H213.2L0 212.8V-44h1024v256.8L810.8 812zM348 584.4l54.8-58.4c-32.4-42.8-24-89.2 6.8-121.6 44.4-46.4 124.4-54.8 180.8-18.8 58 37.6 63.2 109.6 18.8 155.6-18.8 20.4-46 36-83.6 41.2l-8.4-63.2-106 109.6L542.8 716l-8.4-63.2c56.4-8.4 106-34.4 140-70 76.8-78.8 61.6-191.6-30.8-251.6s-226.8-46.4-300.4 30.8C283.2 423.2 278 516 348 584.4z m590.8-542.8H85.2v128.4h853.2v-128.4z m-128 63.2c0 12 10.4 22.4 22 22.4 12 0 22-10.4 22-22.4s-10.4-20.4-22-20.4c-12 0-22 10.4-22 20.4z"  horiz-adv-x="1024" />

    
    <glyph glyph-name="shousuoanniu" unicode="&#59128;" d="M70 780h884.4c38.4 0 70-31.2 70-70S993.2 640 954.4 640H70C31.2 640.4 0 671.6 0 710S31.2 780 70 780z m0-326h651.6c38.4 0 70-31.2 70-70s-31.2-70-70-70H70C31.2 314 0 345.6 0 384s31.2 70 70 70z m0-326.4H908c38.4 0 70-31.2 70-70 0-38.4-31.2-70-70-70H70C31.2-12 0 19.2 0 58c0 38.4 31.2 69.6 70 69.6z"  horiz-adv-x="1024" />

    
    <glyph glyph-name="rongliangpeizhi" unicode="&#59127;" d="M512 868C256.8 868 0 797.6 0 660.8v-574.8h2C27.6-35.6 270.8-100 512-100s486.4 64.4 510 185.6h2V660.8C1026 797.6 767.2 868 512 868z m0-66.4c266.8 0 437.6-78.4 437.6-131.2S778.8 539.6 512 539.6 74.4 617.6 74.4 670.4 247.2 801.6 512 801.6z m0-563.2c-282.4 0-437.6 76.4-437.6 117.2V555.2c96-60.8 266.8-94 437.6-94s341.2 31.2 437.6 94v-201.6c0-39.2-155.2-115.2-437.6-115.2z"  horiz-adv-x="1024" />

    
    <glyph glyph-name="mima" unicode="&#59126;" d="M512 85.6c25.6 0 46.4 20.8 46.4 46.4v155.2c0 25.6-20.8 46.4-46.4 46.4-25.6 0-46.4-20.8-46.4-46.4V132c-0.4-25.6 20.8-46.4 46.4-46.4zM862.4 546.8H792V616.8c0 74.4-29.2 144.8-82 197.2S586.8 896 512 896C357.6 896 232 770.8 232 616.8v-70H161.6c-47.2 0-85.6-38-85.6-85.2v-426.8c0-89.6 73.2-162.8 163.2-162.8h545.2c90 0 163.2 73.2 163.2 162.8V461.6c0.4 46.8-38 85.2-85.2 85.2zM512 803.2c50 0 97.2-19.2 132.4-54.8 35.2-35.2 54.8-82 54.8-132v-70H324.8V616.8c0 50 19.6 96.8 54.8 132 35.6 35.2 82.4 54.4 132.4 54.4z m342.8-349.2v-419.6c0-38.8-31.6-70-70.4-70H239.2c-38.8 0-70.4 31.2-70.4 70V454h686z"  horiz-adv-x="1024" />

    
    <glyph glyph-name="jiazaizhong" unicode="&#59125;" d="M958.4 297.6c-36 0-65.6 28.4-65.6 63.2 0 34.8 29.2 63.2 65.6 63.2 36 0 65.6-28.4 65.6-63.2s-29.2-63.2-65.6-63.2z m-125.2 299.2c-30 0-54.4 23.6-54.4 52.4s24.4 52.4 54.4 52.4 54.8-23.2 54.8-52c0-29.2-24.4-52.8-54.8-52.8z m0-446.4c42 0 76.4-32.8 76.4-73.6s-34-73.6-76.4-73.6c-42 0-76.4 32.8-76.4 73.6 0.4 40.8 34.4 73.6 76.4 73.6zM534 644c-72 0-130.8 56.4-130.8 126S461.6 896 534 896s130.8-56.4 130.8-126c-0.4-69.6-58.8-126-130.8-126zM236.8 533.6C172 533.6 119.6 584 119.6 646.4S172 759.2 236.8 759.2s117.2-50.4 117.2-112.8-52.4-112.8-117.2-112.8z m-18.8-173.2c0-58-48.8-105.2-108.8-105.2S0 302.4 0 360.4s48.8 105.2 108.8 105.2c60.4 0 109.2-47.2 109.2-105.2z m18.8-194.4c52.8 0 95.2-41.2 95.2-92s-42.8-92-95.2-92c-52.8 0-95.2 41.2-95.2 92 0 51.2 42.8 92 95.2 92z m299.6-131.2c46.4 0 84.4-36.4 84.4-81.2s-37.6-81.6-84.4-81.6-84.4 36.4-84.4 81.6c0 44.8 38 81.2 84.4 81.2z"  horiz-adv-x="1024" />

    
    <glyph glyph-name="jisuanziyuan" unicode="&#59124;" d="M945.901525 624.661581c5.598729 9.597822 1.999546 21.995008-7.598276 27.593738L521.597822 893.000681c-6.798457 3.999092-14.396733 3.999092-19.995462 0L84.497023 652.655228c-2.799365-1.999546-5.598729-4.798911-7.598275-7.598276-5.598729-9.597822-2.799365-21.995008 7.598275-27.593737l416.705428-240.345453c6.798457-3.999092 14.396733-3.999092 19.995462 0l417.905155 241.545181c3.199274 0.399909 5.998639 3.199274 6.798457 5.998638z m-304.730841 1.999546c0-5.598729-4.798911-10.39764-10.39764-10.39764h-95.978217v-93.978671c0-5.598729-4.798911-10.39764-10.397641-10.39764H484.006353c-5.598729 0-10.39764 4.798911-10.39764 10.39764V617.063306h-95.978217c-5.598729 0-10.39764 4.798911-10.397641 10.39764V667.851779c0 5.598729 4.798911 10.39764 10.397641 10.39764h95.978217V773.027909c0 5.598729 4.798911 10.39764 10.39764 10.39764h40.390833c5.598729 0 10.39764-4.798911 10.397641-10.39764v-95.978218h95.978217c5.598729 0 10.39764-4.798911 10.39764-10.39764v-39.990924zM466.010437 315.531739L82.897386 536.681548c-2.799365 1.999546-6.798457 2.799365-10.39764 2.799365-11.597368 0-19.995462-9.597822-19.995462-19.995462v-404.308241c0-7.598276 3.999092-14.396733 10.39764-17.196097l383.113052-221.149809c2.799365-1.999546 6.798457-2.799365 10.39764-2.799365 11.597368 0 19.995462 8.798003 19.995462 19.995462V297.135914c0 7.598276-4.798911 14.396733-10.397641 18.395825z m-116.773497-180.359067L177.675876 235.9498c-3.999092 2.799365-6.798457 6.798457-6.798457 11.597368v41.190652c0 4.798911 3.999092 7.598276 7.598275 7.598276 0.799818 0 2.799365 0 3.999093-0.799819l171.561063-100.377219c3.999092-2.799365 6.798457-6.798457 6.798458-11.597368v-41.190652c0-3.999092-2.799365-7.598276-7.598276-7.598275-1.199728-0.399909-3.199274-0.399909-3.999092 0.399909zM969.096261 529.083273c-5.598729 9.597822-18.395825 13.596914-27.593738 7.598275l-384.312779-221.149809c-6.798457-3.999092-10.39764-10.39764-10.39764-17.196097V-107.972145c0-3.999092 0.799818-6.798457 2.799364-9.597822 5.598729-9.597822 18.395825-13.596914 27.593738-7.598276l384.312779 221.14981c6.798457 3.999092 10.39764 10.39764 10.39764 17.196097V519.485451c0 2.799365-0.799818 6.398548-2.799364 9.597822zM902.711327 167.96523l-17.196097-29.593284c-3.999092-7.598276-12.397186-10.39764-19.195644-7.598275l-78.382211 36.39174-48.788927-87.980032c-3.999092-7.598276-12.397186-10.39764-19.195644-7.598276l-26.793919 12.397187c-6.798457 2.799365-8.798003 11.597368-4.79891 18.395825l48.788927 87.980032-78.382211 36.391741c-6.798457 2.799365-8.798003 11.597368-4.798911 18.395825l17.196097 30.793011c3.999092 7.598276 12.397186 10.39764 19.195644 7.598276l78.382211-36.391741 48.788927 87.980033c3.999092 7.598276 12.397186 10.39764 19.195643 7.598275l26.793919-12.397186c6.798457-2.799365 8.798003-11.597368 4.798911-18.395825l-48.788927-87.980033 78.382211-36.391741c6.798457-3.599183 8.798003-11.997277 4.798911-19.595552z"  horiz-adv-x="1024" />

    
    <glyph glyph-name="jibenxinxi" unicode="&#59123;" d="M640.8 565.6H382c-16 0-26-10-26-26s10-26 26-26h257.6c16 0 27.6 10 27.6 26s-10.4 26-26.4 26zM640.8 360H382c-16 0-26-10-26-26s10-26 26-26h257.6c16 0 27.6 10 27.6 26s-10.4 26-26.4 26zM640.8 462.8H382c-16 0-26-10-26-26s10-26 26-26h257.6c16 0 26 10 27.6 26-0.4 16-10.4 26-26.4 26zM512 896C229.2 896 0 666.8 0 384s229.2-512 512-512 512 229.2 512 512S794.8 896 512 896z m178-799.6c-4.8 0-6.4 0-11.6 2.4l-168 102.8-165.2-102.8c-2.4 0-6.4-2.4-11.6-2.4-38.8 0-67.6 28.8-67.6 66.4V604.8c0 37.2 30 66.4 67.6 66.4h355.6c37.2 0 66.4-28.8 67.6-66.4v-442h0.4c0.4-37.2-30-66.4-67.2-66.4z"  horiz-adv-x="1024" />

    
    <glyph glyph-name="upcoming" unicode="&#59122;" d="M715.2 345.6c85.2 1.2 164.8-43.6 207.6-117.2 43.2-73.6 43.2-164.8 0-238s-122.4-118.4-207.6-117.2c-129.2 1.6-233.2 107.2-233.2 236.4s104 234.4 233.2 236zM816.4 895.6c57.2 0 103.2-46 103.2-103.2V300c-100 107.2-265.6 119.2-380 27.2s-138-256-54.4-376.4H171.2c-57.2 0-103.2 46-103.2 103.2V792.8C68 849.6 114.4 896 171.2 896l645.2-0.4z m-110.8-668c-14.4 0-27.2-10.8-29.2-25.2l-0.4-4.4V80c0-14.8 10.8-27.2 25.2-29.2l4.4-0.4H804c15.6 0 28.8 12 30 27.2 1.2 15.6-10 29.2-25.6 31.6l-4.4 0.4h-69.2v88.4c0.4 16.4-12.8 29.6-29.2 29.6z m-200.8 350.8h-276c-18 0-32.8-14-34-31.6-1.2-18 11.6-33.6 29.2-36l4.4-0.4h276.4c18.8 0 34 15.2 34 34s-15.2 34-34 34z m223.6 181.2H228.8c-18 0-32.8-14-34-31.6-1.2-18 11.6-33.6 29.2-36l4.4-0.4h500c18.8 0 34 15.2 34 34s-15.2 34-34 34z"  horiz-adv-x="1024" />

    
    <glyph glyph-name="view" unicode="&#59121;" d="M13.222862 628.782913c8.39981-8.39981 20.399539-13.599693 32.399268-13.599693h1.599964c12.39972 0 24.399449 5.199883 33.199251 13.599693 9.199792 8.799801 13.999684 20.79953 13.999684 33.599242V801.179021h138.796866c25.999413 0.399991 46.798943 21.199521 47.198934 46.798943 0.799982 12.799711-3.99991 25.199431-13.199702 34.399224-8.799801 9.199792-21.599512 13.999684-34.399223 13.599693H47.622085C34.822374 896.376871 22.422654 891.176989 13.222862 882.377188 4.423061 873.177395-0.376831 860.777675 0.02316 847.977964v-184.795827c-0.399991-12.799711 4.399901-25.199431 13.199702-34.399224zM757.606055 814.778714c8.799801-8.799801 20.79953-13.599693 33.199251-13.599693h138.396875v-138.396875c0-25.999413 21.199521-47.198934 47.198934-47.198935 25.999413 0 47.198934 21.199521 47.198935 47.198935V848.377955c0 25.599422-20.79953 47.198934-46.798944 47.198935h-185.595809c-12.799711 0.799982-25.599422-3.99991-34.799215-13.199702s-14.399675-21.999503-13.599693-34.799215c0.799982-11.999729 5.999865-23.999458 14.799666-32.799259zM802.805035 93.59499700000003c8.799801 8.799801 13.999684 20.79953 13.999684 33.19925 0 12.799711-5.199883 24.79944-14.399675 33.199251l-135.99693 135.196947c31.199296 43.599016 48.398907 96.797814 47.598926 150.396604 0 145.596713-118.397327 263.99404-263.99404 263.99404s-263.99404-118.397327-263.994039-263.99404 118.397327-263.99404 264.39403-263.994039h0.399991c53.59879 1.199973 105.197625 17.999594 149.596622 47.598925l135.596939-135.596938c8.799801-9.199792 21.199521-14.399675 33.599241-14.399675 11.999729 0.399991 24.399449 5.199883 33.199251 14.399675zM450.013 615.18322c93.197896 0 169.596171-75.998284 169.596171-169.596171 0-93.197896-75.998284-169.596171-169.19618-169.59617-93.197896 0-169.19618 76.398275-169.596171 169.59617-0.399991 93.597887 75.998284 169.596171 169.19618 169.596171zM1024.000041-80.00108399999999v185.195819c0 25.999413-20.79953 47.198934-46.798944 47.198934h-0.399991c-25.999413 0-47.198934-21.199521-47.598925-47.198934v-138.396875h-137.996884c-25.999413 0-47.198934-21.199521-47.198935-47.198935 0-25.999413 21.199521-47.198934 47.198935-47.198934h187.595764c11.999729 0 23.999458 4.799892 32.399269 13.599693 8.39981 8.799801 13.199702 21.199521 12.799711 33.999232zM233.617886-33.202139999999986H94.82102v138.396875c0 25.999413-21.199521 47.198934-47.198935 47.198934S0.02316 131.19414800000004 0.02316 105.19473500000004v-185.59581c0-25.999413 20.79953-47.198934 47.198934-47.198934h186.795783c25.999413 0 47.198934 21.199521 47.198934 47.198934 0 25.999413-21.599512 47.198934-47.598925 47.198935z"  horiz-adv-x="1024" />

    
    <glyph glyph-name="jinyong" unicode="&#59120;" d="M512 896C230.4 896 0 665.6 0 384s230.4-512 512-512 512 230.4 512 512S793.6 896 512 896z m0-896c-211.6 0-384 173.2-384 384s172.4 384 384 384 384-173.2 384-384-172.4-384-384-384zM382 596c-22.8 22.8-60.4 22.8-83.6 0-23.2-22.8-22.8-60.4 0-83.6l326-326c22.8-22.8 60.4-22.8 83.6 0 22.8 22.8 22.8 60.4 0 83.6L382 596z"  horiz-adv-x="1024" />

    
    <glyph glyph-name="wrong" unicode="&#58954;" d="M514.56 272.89599999999996l7.168-7.168 219.648-212.992c14.336-13.824 33.792-22.016 53.76-22.016 20.992 0 40.96 8.192 55.296 23.552 14.336 14.848 22.016 34.304 22.016 54.784-0.512 20.48-8.704 39.936-23.552 54.272L629.76 376.832l-7.168 7.168 7.168 7.168 212.992 219.648c27.648 30.208 27.136 76.8-1.536 106.496-14.848 14.848-34.304 23.04-55.296 23.04v5.12-5.12c-20.48 0-39.424-7.68-53.76-22.016l-212.992-219.648-7.68-7.168-7.168 7.168-220.16 212.992c-1.024 1.536-2.56 2.56-4.096 4.096-14.336 12.8-32.768 19.968-51.712 19.968-22.016 0-42.496-9.216-57.344-25.6-28.672-31.744-26.112-80.384 5.632-109.056l219.648-212.992 7.168-7.168-7.168-7.168-212.48-220.16c-29.696-30.72-28.672-79.36 1.536-109.056 14.336-13.824 33.792-22.016 53.76-22.016 20.992 0 40.96 8.192 55.296 23.552l212.992 219.648 7.168 7.168z"  horiz-adv-x="1024" />

    
    <glyph glyph-name="right" unicode="&#58969;" d="M393.88758 28.08699999999999c-20.187 0-40.301 7.68-55.661 23.113L23.05358 367.616a79.433 79.433 0 0 0 0 111.909 78.555 78.555 0 0 0 111.397 0L393.81358 218.99l495.69 497.737a78.336 78.336 0 0 0 111.323 0c30.72-30.866 30.72-80.896 0-111.762L449.47658 51.273000000000025a77.824 77.824 0 0 0-55.589-23.186z m0 0"  horiz-adv-x="1024" />

    
    <glyph glyph-name="stretch" unicode="&#58905;" d="M1024 786.284c0-40.372-32.784-73.144-73.14-73.144H73.144C32.768 713.14 0 745.908 0 786.284 0 826.66 32.768 859.428 73.144 859.428H950.86c40.356 0 73.14-32.768 73.14-73.144zM1024 384c0-40.356-32.784-73.144-73.14-73.144H73.144C32.768 310.856 0 343.644 0 384c0 40.376 32.768 73.144 73.144 73.144H950.86c40.356 0 73.14-32.768 73.14-73.144z m0-402.284c0-40.36-32.784-73.144-73.14-73.144H73.144C32.768-91.428 0-58.644000000000005 0-18.283999999999992c0 40.356 32.768 73.14 73.144 73.14H950.86c40.356 0 73.14-32.784 73.14-73.14z"  horiz-adv-x="1024" />

    
    <glyph glyph-name="edit" unicode="&#58906;" d="M839.68 220.15999999999997c-20.992 0-37.888-16.896-37.888-37.888v-121.856c0-12.8-10.24-23.04-23.04-23.04H160.256c-12.8 0-23.04 10.24-23.04 23.04V728.064c0 12.8 10.24 23.04 23.04 23.04H552.96c20.992 0 37.888 16.896 37.888 37.888 0 20.992-16.896 37.888-37.888 37.888H160.256C105.984 826.88 61.44 782.848 61.44 728.064v-667.648c0-54.784 44.544-99.328 99.328-99.328H778.24c54.784 0 99.328 44.544 99.328 99.328v121.856c0 20.992-16.896 37.888-37.888 37.888zM953.856 654.336L855.04 753.664c-37.376 37.376-102.912 37.376-140.288 0L421.888 460.8c-29.696-29.696-55.808-86.016-59.392-128l-6.656-79.36c-6.144-77.312-6.656-78.336 6.144-91.648 7.168-7.168 16.896-11.264 27.136-11.264 1.536 0 6.144 0 64.512 4.608l79.36 6.656c41.984 3.584 98.304 29.696 128 59.392l292.864 292.864c38.4 38.912 38.4 101.888 0 140.288z m-53.76-86.528l-292.864-292.864c-17.408-17.408-55.808-35.328-80.384-37.376l-79.36-6.656c-6.144-0.512-11.776-1.024-17.408-1.536l8.192 96.768c2.048 24.576 19.968 62.976 37.376 80.384L768 699.904c4.096 4.096 10.24 6.656 16.384 6.656 6.144 0 12.288-2.56 16.384-6.656l99.328-99.328c9.216-8.704 9.216-23.552 0-32.768z"  horiz-adv-x="1024" />

    
    <glyph glyph-name="minus_circle" unicode="&#58910;" d="M512 896C229.248 896 0 666.752 0 384s229.248-512 512-512 512 229.248 512 512S794.752 896 512 896z m299.904-512c0-31.36-25.344-56.832-56.832-56.832h-486.4c-31.36 0-56.832 25.344-56.832 56.832 0 31.36 25.344 56.832 56.832 56.832h486.144c31.488 0 57.088-25.344 57.088-56.832z"  horiz-adv-x="1024" />

    
    <glyph glyph-name="plus_circle" unicode="&#58911;" d="M512 896C229.248 896 0 666.752 0 384s229.248-512 512-512 512 229.248 512 512S794.752 896 512 896z m243.2-568.832H568.832v-186.24c0-31.36-25.344-56.96-56.832-56.96-31.36 0-56.832 25.344-56.832 56.832V327.168H268.8c-31.36 0-56.832 25.344-56.832 56.832 0 31.36 25.344 56.832 56.832 56.832h186.368V627.2c0 31.36 25.344 56.832 56.832 56.832 31.36 0 56.832-25.344 56.832-56.832v-186.368h186.24c31.36 0 56.96-25.344 56.96-56.832 0-31.36-25.472-56.832-56.832-56.832z"  horiz-adv-x="1024" />

    
    <glyph glyph-name="edit_line" unicode="&#58912;" d="M294.386 150.55499999999995a70.014 70.014 0 0 1 49.514 15.793l4.805 1.56-151.48 151.48-1.5-4.805a69.734 69.734 0 0 1-15.854-49.513l-53.697-168.26zM842.803 763.9L793.23 813.475a70.112 70.112 0 0 1-99.1 0l-47.99-48.001L794.754 616.86l48.014 48.013a69.99 69.99 0 0 1 0 99.04z m-99.1-198.177L595.102 714.326l-345.315-345.29 148.614-148.675zM841.706-66H182.273a56.27 56.27 0 0 0-56.099 56.1 56.27 56.27 0 0 0 56.1 56.098h659.432a56.27 56.27 0 0 0 56.099-56.099 56.27 56.27 0 0 0-56.1-56.075z"  horiz-adv-x="1024" />

    
    <glyph glyph-name="calender" unicode="&#58913;" d="M890.127 728.995h-43.389v12.892c0 38.644-31.466 70.234-69.922 70.234h-1.032c-38.458 0-69.922-31.59-69.922-70.234v-12.892h-386.7v12.892c0 38.644-31.465 70.234-69.922 70.234h-1.063c-38.457 0-69.923-31.59-69.923-70.234v-12.892h-43.296c-38.458 0-69.923-31.622-69.923-70.207v-671.446c0-38.644 31.466-70.236 69.923-70.236h755.17c38.458 0 69.922 31.592 69.922 70.236V658.788c0 38.585-31.464 70.207-69.923 70.207zM733.83 741.887c0 23.222 18.793 42.139 41.954 42.139h1.032c23.13 0 41.954-18.918 41.954-42.14V616.96c0-23.224-18.824-42.14-41.954-42.14h-1.032c-23.161 0-41.954 18.916-41.954 42.14V741.888z m-527.607 0c0 23.222 18.793 42.139 41.955 42.139h1.063c23.098 0 41.954-18.918 41.954-42.14V616.96c0-23.224-18.856-42.14-41.954-42.14h-1.063c-23.162 0-41.955 18.916-41.955 42.14V741.888zM890.127-26.74000000000001H134.958c-7.585 0-13.985 6.525-13.985 14.08V481.018h783.138v-493.676c0-7.555-6.399-14.08-13.984-14.08zM223.755 380.467H352.78v-63.488H223.755v63.488z m225.28 0h128v-63.488h-128v63.488z m224.256 0h125.952v-63.488H673.291v63.488zM223.755 251.44299999999998H352.78v-62.464H223.755v62.464z m225.28 0h128v-62.464h-128v62.464z m224.256 0h125.952v-62.464H673.291v62.464zM223.755 125.49000000000001H352.78v-65.536H223.755V125.49000000000001z m225.28 0h128v-65.536h-128V125.49000000000001z m224.256 0h125.952v-65.536H673.291V125.49000000000001z"  horiz-adv-x="1024" />

    
    <glyph glyph-name="warning_circle" unicode="&#58914;" d="M512 896C229.888 896 0 666.112 0 384c0-282.624 229.888-512 512-512s512 229.888 512 512S794.112 896 512 896z m0-879.616c-53.76 1.024-96.768 45.568-96.256 99.328 1.024 52.736 43.52 95.232 96.256 96.256 53.76 0 97.792-43.52 97.792-97.792 0-53.76-44.032-97.792-97.792-97.792z m0 248.832c-65.024 0-117.248 304.128-117.248 369.152 0 65.024 52.736 117.248 117.248 117.248s117.248-52.736 117.248-117.248c0-65.024-52.224-369.152-117.248-369.152z"  horiz-adv-x="1024" />

    
    <glyph glyph-name="up" unicode="&#58915;" d="M556.8 6.399999999999977c-6.4-57.6-89.6-51.2-89.6 0v640L179.2 377.6c-44.8-38.4-96 25.6-64 64 128 121.6 352 339.2 358.4 345.6 19.2 25.6 51.2 25.6 76.8 0 38.4-44.8 345.6-339.2 358.4-352 32-38.4-19.2-96-64-64C832 384 556.8 652.8 556.8 652.8"  horiz-adv-x="1024" />

    
    <glyph glyph-name="down" unicode="&#58917;" d="M467.2 761.6c6.4 57.6 89.6 51.2 89.6 0v-640l281.6 275.2c44.8 38.4 96-25.6 64-64-128-121.6-352-339.2-358.4-345.6-19.2-25.6-51.2-25.6-76.8 0C435.2 25.600000000000023 128 320 115.2 332.79999999999995c-32 38.4 19.2 96 64 64 12.8-12.8 288-281.6 288-281.6"  horiz-adv-x="1024" />

    
    <glyph glyph-name="setting" unicode="&#58919;" d="M1373.733333 448.933333c-3.733333 20.266667-23.333333 41.066667-43.6 45.6l-15.2 3.466667c-35.733333 10.8-67.466667 34.4-87.6 69.333333-20.133333 35.066667-24.933333 74.666667-16.133333 111.2l4.8 14.266667c6 19.866667-1.866667 47.066667-17.733333 60.666667 0 0-14.266667 12.133333-54.533334 35.333333-40.266667 23.066667-57.733333 29.6-57.733333 29.6-19.6 7.066667-47.066667 0.4-61.333333-14.8l-10.666667-11.333333c-27.2-25.6-63.6-41.2-103.866667-41.2-40.266667 0-77.066667 15.733333-104.266666 41.6l-10.266667 10.933333c-14.133333 15.2-41.733333 22-61.333333 14.8 0 0-17.6-6.4-57.866667-29.6-40.266667-23.466667-54.4-35.6-54.4-35.6-16-13.333333-23.866667-40.4-17.733333-60.4l4.4-14.4c8.666667-36.533333 4.133333-76-16.133334-111.066667-20.133333-35.066667-52.133333-58.8-88.133333-69.466666l-14.666667-3.333334c-20.133333-4.533333-40-25.066667-43.6-45.6 0 0-3.333333-18.4-3.333333-64.933333 0-46.533333 3.333333-64.8 3.333333-64.8 3.6-20.533333 23.333333-41.066667 43.6-45.6l14.266667-3.333333c35.866667-10.666667 68.133333-34.4 88.266667-69.6 20.133333-34.933333 24.933333-74.8 16.133333-111.2l-4.133333-14.133334c-6-19.866667 1.866667-47.066667 17.866666-60.666666 0 0 14.266667-12.133333 54.533334-35.466667 40.266667-23.2 57.733333-29.466667 57.733333-29.466667 19.6-7.066667 47.066667-0.4 61.333333 14.8l10 10.8c27.333333 25.866667 64 41.6 104.4 41.6 40.533333 0 77.333333-16 104.4-41.733333l10.133334-10.8c14.133333-15.2 41.733333-22 61.333333-14.8 0 0 17.6 6.4 57.866667 29.466667 40.266667 23.333333 54.4 35.466667 54.4 35.466666 16 13.333333 23.866667 40.666667 17.733333 60.666667l-4.4 14.666667c-8.666667 36.266667-4.133333 75.866667 16.133333 110.666666 20.133333 34.933333 52.4 58.933333 88.266667 69.6l14.266667 3.333334c20.133333 4.533333 39.866667 25.066667 43.6 45.6 0 0 3.333333 18.4 3.333333 64.8-0.266667 46.666667-3.466667 65.066667-3.466667 65.066666M910 197.73333300000002c-102.8 0-186.266667 83.333333-186.266667 186.266667 0 102.8 83.333333 186.133333 186.266667 186.133333 102.8 0 186.266667-83.333333 186.266667-186.4-0.266667-102.666667-83.6-186-186.266667-186"  horiz-adv-x="1821" />

    
    <glyph glyph-name="topest" unicode="&#58920;" d="M556.8-83.20000000000005c-6.4-57.6-89.6-51.2-89.6 0v640L179.2 281.6c-44.8-38.4-96 25.6-64 64 128 121.6 352 339.2 358.4 345.6 19.2 25.6 51.2 25.6 76.8 0 38.4-38.4 352-339.2 358.4-345.6 32-38.4-19.2-96-64-64-12.8 6.4-288 275.2-288 275.2M166.4 896h691.2c25.6 0 44.8-19.2 44.8-44.8 0-25.6-19.2-44.8-44.8-44.8H166.4c-25.6 0-44.8 19.2-44.8 44.8-6.4 25.6 12.8 44.8 44.8 44.8z"  horiz-adv-x="1024" />

    
    <glyph glyph-name="delete" unicode="&#58921;" d="M898.048 675.84h-205.824c-2.56 93.696-79.36 168.448-173.056 168.448-93.696 0-170.496-74.752-173.568-167.936H125.952c-24.576 0-44.032-19.968-44.032-44.032 0-24.576 19.968-44.032 44.032-44.032h48.64v-495.104c0-93.184 62.976-168.96 140.8-168.96h396.8c77.824 0 140.8 75.264 140.8 168.96V587.264h44.032c24.576 0 44.032 19.968 44.032 44.032 1.024 24.576-18.944 44.544-43.008 44.544zM512 763.904c48.128 0 87.04-34.816 89.6-79.872H421.888c3.072 45.056 41.984 79.872 90.112 79.872z m269.824-674.304c0-50.688-30.72-86.016-58.88-86.016H320.512v0.512c-28.16 0-58.88 35.328-58.88 86.016V584.192h520.192v-494.592zM522.24 123.904zM642.048 123.904c22.016 0 39.936 19.456 39.936 44.032V419.84c0 24.576-17.92 44.032-39.936 44.032s-39.936-19.456-39.936-44.032v-251.904c0-24.576 17.408-44.032 39.936-44.032zM381.952 123.904c22.016 0 39.936 19.456 39.936 44.032V419.84c0 24.576-17.92 44.032-39.936 44.032s-39.936-19.456-39.936-44.032v-251.904c0-24.576 17.408-44.032 39.936-44.032zM381.952 123.904zM522.24 123.904c22.016 0 39.936 19.456 39.936 44.032V419.84c0 24.576-17.92 44.032-39.936 44.032s-39.936-19.456-39.936-44.032v-251.904c-0.512-24.576 17.92-44.032 39.936-44.032z"  horiz-adv-x="1024" />

    
    <glyph glyph-name="search" unicode="&#58922;" d="M1000.59-60.188999999999965L690.594 265.86c47.2 56.096 77.299 124.671 86.447 199.122 12.648 101.75-15.148 202.298-78.051 283.097C635.939 828.877 545.24 880.376 443.493 893.028c-101.699 12.6-202.25-15.152-283.149-78.099-80.847-63.047-132.298-153.698-144.95-255.445-12.648-101.699 15.1-202.322 78.151-283.12 61-78.3 148.798-129.403 247.049-143.85 2-0.3 3.952-0.4 5.8-0.4 19.6 0 36.752 14.295 39.651 34.299 3.2 21.9-11.951 42.295-33.9 45.547-77.65 11.404-147.097 51.8-195.297 113.75-49.847 63.976-71.799 143.427-61.799 223.926 9.952 80.447 50.651 152.15 114.55 201.998 131.999 102.798 323.045 79.099 425.896-52.848 49.85-63.899 71.799-143.45 61.799-223.897-10-80.399-50.7-152.174-114.647-202.022a302.648 302.648 0 0 0-101.25-51.999c-21.252-6.2-33.452-28.552-27.252-49.8 6.2-21.251 28.447-33.447 49.751-27.251 46.5 13.648 89.547 35.7 128.047 65.7 0.252 0.2 0.452 0.403 0.704 0.551l309.592-325.548a39.824 39.824 0 0 1 29.052-12.5 39.74 39.74 0 0 1 27.6 11.052c16.299 15.24 16.951 40.64 1.7 56.74z"  horiz-adv-x="1024" />

    
    <glyph glyph-name="refresh" unicode="&#58923;" d="M276.61 48.18799999999999a52.354 52.354 0 0 0-40.358-19.17c-11.336 0-22.796 3.711-32.319 11.461A461.045 461.045 0 0 0 31.701 400.773c0 62.495 12.243 123.053 36.442 180.23a461.127 461.127 0 0 0 135.254 179.652H164.36a51.53 51.53 0 1 0 0 103.06h330.324a51.53 51.53 0 1 0 0-103.06c-198.409 0-359.8-161.431-359.8-359.8A358.274 358.274 0 0 1 268.86 120.78399999999999c22.137-17.891 25.641-50.376 7.71-72.554z m599.515-58.744c0-28.444-22.92-51.53-51.406-51.53H494.436a51.53 51.53 0 1 0 0 103.06c198.368 0 359.8 161.431 359.8 359.84a358.274 358.274 0 0 1-133.977 280.033 51.57 51.57 0 1 0 64.803 80.262 461.045 461.045 0 0 0 172.233-360.294c0-62.495-12.244-123.053-36.483-180.23a461.127 461.127 0 0 0-135.214-179.611h38.998c28.444 0 51.53-23.044 51.53-51.53z"  horiz-adv-x="1058" />

    
    <glyph glyph-name="left_circle" unicode="&#58924;" d="M888.604734 894.957496c-282.127768 0-510.827182-228.699415-510.827182-510.827183s228.699415-510.827182 510.827182-510.827182 510.827182 228.699415 510.827183 510.827182-228.699415 510.827182-510.827183 510.827183z m125.491474-718.024943c20.198524-20.328837 20.198524-53.167727 0-73.366251-20.328837-20.328837-53.167727-20.328837-73.366251 0L696.002036 348.163909c-9.773479 9.773479-15.246628 22.935098-15.246627 36.748282 0 13.813184 5.473148 26.974803 15.246627 36.748282l0.260626 0.260627c0.130313 0 0.260626 0.130313 0.260626 0.260626l244.597608 244.597607c20.328837 20.328837 53.167727 20.328837 73.366251 0 20.328837-20.328837 20.328837-53.167727 0-73.366251l-208.370578-208.500891 207.979639-207.979638z m0 0"  horiz-adv-x="1780" />

    
    <glyph glyph-name="lowest" unicode="&#58927;" d="M467.2 851.2c6.4 57.6 89.6 51.2 89.6 0v-640l281.6 275.2c44.8 38.4 96-25.6 64-64-128-121.6-352-339.2-358.4-345.6-19.2-25.6-51.2-25.6-76.8 0-32 38.4-339.2 339.2-352 345.6-32 38.4 19.2 96 64 64 12.8-6.4 288-275.2 288-275.2M857.6-128H166.4c-25.6 0-44.8 19.2-44.8 44.8 0 25.6 19.2 44.8 44.8 44.8h691.2c25.6 0 44.8-19.2 44.8-44.8 6.4-19.2-19.2-44.8-44.8-44.8z"  horiz-adv-x="1024" />

    
    <glyph glyph-name="triangle_down" unicode="&#58925;" d="M1020.416 660.913778C1014.001778 674.126222 1000 682.666667 984.583111 682.666667H39.338667c-15.331556 0-29.333333-8.540444-35.747556-21.752889-6.414222-13.248-4.081778-28.835556 5.873778-39.872L482.126222 98.33244400000001C489.543111 90.16888900000004 500.501333 85.33333300000004 512 85.33333300000004s22.456889 4.835556 29.873778 12.999111l472.625778 522.709334c9.998222 11.043556 12.330667 26.624 5.916444 39.872z"  horiz-adv-x="1024" />

    
    <glyph glyph-name="triangle_right" unicode="&#58929;" d="M275.043556-118.49955599999998l522.624 472.625778C805.831111 361.54311099999995 810.666667 372.50133300000005 810.666667 384s-4.835556 22.456889-12.999111 29.873778l-522.624 472.661333c-11.121778 9.955556-26.709333 12.295111-39.957334 5.873778-13.212444-6.414222-21.752889-20.408889-21.752889-35.747556V-88.58311100000003c0-15.416889 8.540444-29.418667 21.752889-35.832889 13.248-6.414222 28.828444-4.081778 39.957334 5.916444z"  horiz-adv-x="1024" />

    
    <glyph glyph-name="triangle_left" unicode="&#58930;" d="M748.988297 886.48086L226.308464 413.919355a41.066025 41.066025 0 0 1-12.956242-29.873311c0-11.498487 4.878146-22.534759 12.956242-29.873311l522.679833-472.767724c11.000717-9.919845 26.66625-12.252253 39.906932-5.752799 13.247793 6.499454 21.752549 20.415681 21.752549 35.668776V856.607549c0 15.416648-8.497645 29.418207-21.752549 35.832329-13.240682 6.414122-28.820883 4.003493-39.906932-5.959018z"  horiz-adv-x="1024" />

    
    <glyph glyph-name="triangle_up" unicode="&#58932;" d="M1014.499556 147.00088900000003L541.873778 669.7102219999999C534.456889 677.788444 523.498667 682.666667 512 682.666667s-22.456889-4.878222-29.873778-12.956445l-472.661333-522.709333c-9.955556-11.086222-12.295111-26.666667-5.873778-39.914667S24 85.33333300000004 39.338667 85.33333300000004H984.583111c15.416889 0 29.418667 8.497778 35.832889 21.752889s4.081778 28.828444-5.916444 39.914667z"  horiz-adv-x="1024" />

    
    <glyph glyph-name="triangle_right_line" unicode="&#58937;" d="M765.404346 333.34336499999995l-411.918595-440.249092a64.170282 64.170282 0 0 0-94.958363 0 75.229415 75.229415 0 0 0 0 101.307126L623.137467 383.996928l-364.541813 389.663795a75.161149 75.161149 0 0 0 0 101.375392 64.170282 64.170282 0 0 0 94.890097 0l411.918595-440.317358c13.107121-13.994583 19.660682-32.358206 19.660682-50.721829s-6.553561-36.727246-19.660682-50.653563z"  horiz-adv-x="1024" />

    
    <glyph glyph-name="triangle_left_line" unicode="&#58939;" d="M258.60258 333.33075599999995A73.725542 73.725542 0 0 0 238.942435 383.982934c0 18.363121 6.553382 36.726242 19.660145 50.720443L670.509916 875.0087c26.213526 27.9884 68.673978 27.9884 94.887504 0s26.213526-73.384221 0-101.372621L400.865571 383.982934l364.600113-389.584881c26.145262-27.9884 26.145262-73.384221 0-101.372621a64.168528 64.168528 0 0 0-94.955768 0l-411.907336 440.305324z m0 0"  horiz-adv-x="1024" />

    
    <glyph glyph-name="triangle_up_line" unicode="&#58941;" d="M562.728277 637.405867l440.251734-411.921067a64.170667 64.170667 0 0 0 0-94.958933 75.229867 75.229867 0 0 0-101.307734 0L512.006144 495.138133l-389.666133-364.475733a75.1616 75.1616 0 0 0-101.376 0 64.170667 64.170667 0 0 0 0 94.890667l440.32 411.921066c13.994667 13.1072 32.3584 19.592533 50.722133 19.592534s36.795733-6.485333 50.722133-19.6608z"  horiz-adv-x="1024" />

    
    <glyph glyph-name="triangle_down_line" unicode="&#58942;" d="M461.346133 130.59413300000006L21.0944 542.5152a64.170667 64.170667 0 0 0 0 94.958933 75.229867 75.229867 0 0 0 101.307733 0L512 272.86186699999996l389.666133 364.544a75.093333 75.093333 0 0 0 101.307734 0 64.170667 64.170667 0 0 0 0-94.890667l-440.251734-411.921067c-13.9264-13.1072-32.290133-19.6608-50.722133-19.6608s-36.727467 6.5536-50.653867 19.6608z"  horiz-adv-x="1024" />

    


  </font>
</defs>
</svg>
